<?xml version="1.0" encoding="utf-8"?>
<!-- Generator: Adobe Illustrator 15.0.0, SVG Export Plug-In . SVG Version: 6.00 Build 0)  -->
<!DOCTYPE svg PUBLIC "-//W3C//DTD SVG 1.1//EN" "http://www.w3.org/Graphics/SVG/1.1/DTD/svg11.dtd">
<svg version="1.1" id="Layer_1" xmlns="http://www.w3.org/2000/svg" xmlns:xlink="http://www.w3.org/1999/xlink" x="0px" y="0px"
	 width="115.722px" height="75.877px" viewBox="-0.001 9.864 115.722 75.877" enable-background="new -0.001 9.864 115.722 75.877"
	 xml:space="preserve">
<path d="M0,63.525c0-5.176,1.611-9.774,4.834-13.794s7.357-6.6,12.402-7.739c1.335-6.12,4.427-11.125,9.277-15.015
	c4.85-3.89,10.433-5.835,16.748-5.835c6.152,0,11.646,1.896,16.479,5.688c4.833,3.792,7.967,8.65,9.398,14.575h1.416
	c6.12,0,11.346,2.157,15.674,6.47c4.33,4.313,6.494,9.529,6.494,15.648c0,6.12-2.164,11.353-6.494,15.699
	c-4.328,4.346-9.554,6.519-15.674,6.519h-48.34c-2.995,0-5.867-0.587-8.618-1.759c-2.751-1.172-5.119-2.75-7.104-4.735
	s-3.564-4.354-4.736-7.104C0.585,69.393-0.001,66.52,0,63.525L0,63.525z M7.568,63.525c0,3.971,1.433,7.381,4.297,10.229
	c2.864,2.848,6.315,4.271,10.352,4.271h48.34c4.037,0,7.488-1.424,10.353-4.271s4.297-6.258,4.297-10.229
	c0-3.972-1.433-7.373-4.297-10.205c-2.864-2.833-6.315-4.249-10.353-4.249H63.33c-0.521,0-0.781-0.26-0.781-0.781l-0.342-2.539
	c-0.521-4.916-2.58-8.992-6.177-12.231s-7.854-4.858-12.769-4.858c-4.916,0-9.188,1.627-12.817,4.883s-5.672,7.324-6.128,12.207
	l-0.342,2.197c0,0.521-0.277,0.781-0.83,0.781L20.8,49.073c-3.743,0.326-6.884,1.873-9.424,4.639
	C8.836,56.479,7.567,59.75,7.568,63.525L7.568,63.525z M53.662,18.115c-0.521,0.488-0.391,0.846,0.391,1.074
	c2.246,0.977,4.118,1.937,5.615,2.881c0.586,0.163,0.977,0.114,1.172-0.146c3.158-2.995,6.836-4.492,11.035-4.492
	s7.837,1.408,10.913,4.224c3.075,2.816,4.793,6.291,5.151,10.425l0.488,3.32H95.8c3.386,0,6.299,1.213,8.74,3.638
	s3.662,5.314,3.662,8.667c0,3.126-1.075,5.843-3.224,8.153s-4.801,3.646-7.959,4.004c-0.52,0-0.781,0.277-0.781,0.83v5.908
	c0,0.554,0.262,0.83,0.781,0.83c5.241-0.325,9.668-2.393,13.281-6.201s5.42-8.316,5.42-13.524c0-5.501-1.945-10.197-5.834-14.087
	c-3.891-3.89-8.586-5.835-14.088-5.835h-0.781c-1.367-5.209-4.223-9.498-8.568-12.866s-9.204-5.053-14.575-5.054
	c-7.356,0-13.428,2.751-18.213,8.252L53.662,18.115z"/>
</svg>
