<?xml version="1.0" encoding="utf-8"?>
<!-- Generator: Adobe Illustrator 15.0.0, SVG Export Plug-In . SVG Version: 6.00 Build 0)  -->
<!DOCTYPE svg PUBLIC "-//W3C//DTD SVG 1.1//EN" "http://www.w3.org/Graphics/SVG/1.1/DTD/svg11.dtd">
<svg version="1.1" id="Layer_1" xmlns="http://www.w3.org/2000/svg" xmlns:xlink="http://www.w3.org/1999/xlink" x="0px" y="0px"
	 width="124.121px" height="114.55px" viewBox="0 -21.875 124.121 114.55" enable-background="new 0 -21.875 124.121 114.55"
	 xml:space="preserve">
<path d="M0,41.797c0,1.4,0.488,2.556,1.465,3.467c0.977,0.911,2.23,1.367,3.76,1.367h8.789c1.4,0,2.596-0.464,3.589-1.392
	c0.993-0.928,1.489-2.075,1.489-3.442c0-1.497-0.488-2.734-1.465-3.711s-2.181-1.465-3.613-1.465H5.225
	c-1.53,0-2.783,0.48-3.76,1.44C0.488,39.021,0,40.266,0,41.797L0,41.797z M9.229,74.023c0,5.045,1.839,9.415,5.518,13.109
	c3.679,3.695,8.041,5.542,13.086,5.542h35.742c5.045,0,9.366-1.823,12.964-5.469s5.396-8.04,5.396-13.185
	c0-2.506-0.358-4.639-1.074-6.396c4.329-2.767,7.755-6.453,10.277-11.06c2.523-4.607,3.784-9.531,3.784-14.771
	c0-4.232-0.83-8.276-2.489-12.134c-1.66-3.857-3.883-7.178-6.666-9.961c-2.783-2.784-6.104-5.005-9.961-6.665
	c-3.857-1.66-7.885-2.49-12.084-2.49c-5.697,0-10.946,1.4-15.748,4.199s-8.578,6.591-11.328,11.377
	c-2.75,4.785-4.126,10.01-4.126,15.674v1.758c-5.208,2.962-8.643,7.291-10.303,12.988c-3.938,1.236-7.088,3.434-9.448,6.592
	S9.23,69.92,9.23,74.021L9.229,74.023z M17.334,0.244c0,1.464,0.456,2.637,1.367,3.516l8.398,8.789c2.441,1.855,4.882,1.855,7.324,0
	c0.977-0.977,1.465-2.197,1.465-3.662c0-1.4-0.488-2.621-1.465-3.662L25.829-3.32c-1.107-1.01-2.311-1.514-3.613-1.514
	c-1.464,0-2.645,0.488-3.54,1.465C17.781-2.392,17.333-1.188,17.334,0.244L17.334,0.244z M19.531,74.023
	c0-2.182,0.7-4.053,2.1-5.615s3.174-2.441,5.322-2.637l3.223-0.439c0.684,0,1.025-0.391,1.025-1.172l0.488-2.93
	c0.358-2.995,1.628-5.502,3.809-7.521s4.753-3.028,7.715-3.026c3.027,0,5.656,1.008,7.886,3.026s3.524,4.524,3.882,7.521L55.42,64.6
	c0.325,0.781,0.749,1.172,1.27,1.172h6.885c2.245,0,4.19,0.813,5.835,2.44s2.466,3.564,2.466,5.812c0,2.344-0.821,4.346-2.466,6.006
	s-3.59,2.49-5.835,2.49H27.833c-2.344,0-4.313-0.83-5.908-2.49c-1.594-1.66-2.392-3.662-2.393-6.006H19.531z M42.578,40.723
	c0.358-5.697,2.555-10.482,6.592-14.355c4.037-3.874,8.887-5.811,14.551-5.811c5.795,0,10.727,2.067,14.795,6.201
	c4.07,4.134,6.104,9.147,6.104,15.039c0,3.646-0.888,7.023-2.661,10.133c-1.773,3.107-4.175,5.623-7.202,7.543
	c-3.06-2.539-6.592-3.809-10.596-3.809c-1.53-4.558-4.2-8.187-8.008-10.889s-8.122-4.053-12.939-4.053L42.578,40.723L42.578,40.723z
	 M58.643-4.834c0,1.432,0.496,2.645,1.489,3.638c0.993,0.993,2.189,1.489,3.589,1.489c1.432,0,2.645-0.496,3.639-1.489
	c0.993-0.993,1.489-2.206,1.488-3.638v-12.207c0-1.367-0.496-2.515-1.488-3.442c-0.993-0.927-2.205-1.392-3.639-1.392
	c-1.4,0-2.596,0.464-3.589,1.392c-0.993,0.928-1.489,2.075-1.489,3.442V-4.834z M91.553,74.463c0,1.4,0.473,2.621,1.416,3.662
	l8.545,8.447c2.182,2.213,4.623,2.213,7.324,0c0.912-0.879,1.367-2.051,1.367-3.516c0-1.4-0.455-2.557-1.367-3.468l-8.789-8.739
	c-0.943-0.879-2.132-1.318-3.564-1.318c-1.432,0-2.611,0.472-3.539,1.416C92.018,71.891,91.553,73.063,91.553,74.463L91.553,74.463z
	 M91.553,8.789c0,1.464,0.473,2.718,1.416,3.76c0.944,0.944,2.116,1.416,3.516,1.416c1.433,0,2.621-0.472,3.564-1.416l8.789-8.789
	c0.912-0.879,1.367-2.051,1.367-3.516c0-1.432-0.496-2.636-1.489-3.613c-0.993-0.977-2.205-1.465-3.638-1.465
	c-1.367,0-2.556,0.504-3.564,1.514l-8.545,8.545C92.025,6.169,91.553,7.357,91.553,8.789z M105.029,41.797
	c0,1.4,0.488,2.556,1.465,3.467c0.977,0.911,2.23,1.367,3.76,1.367h8.789c1.4,0,2.596-0.464,3.589-1.392
	c0.993-0.928,1.489-2.075,1.489-3.442c0-1.497-0.488-2.734-1.465-3.711s-2.182-1.465-3.613-1.465h-8.789
	c-1.529,0-2.783,0.48-3.76,1.44S105.029,40.266,105.029,41.797L105.029,41.797z"/>
</svg>
