<?xml version="1.0" encoding="utf-8"?>
<!-- Generator: Adobe Illustrator 15.0.0, SVG Export Plug-In . SVG Version: 6.00 Build 0)  -->
<!DOCTYPE svg PUBLIC "-//W3C//DTD SVG 1.1//EN" "http://www.w3.org/Graphics/SVG/1.1/DTD/svg11.dtd">
<svg version="1.1" id="Layer_1" xmlns="http://www.w3.org/2000/svg" xmlns:xlink="http://www.w3.org/1999/xlink" x="0px" y="0px"
	 width="139.991px" height="109.13px" viewBox="-0.001 -23.389 139.991 109.13"
	 enable-background="new -0.001 -23.389 139.991 109.13" xml:space="preserve">
<path d="M0,59.912C0,64.6,1.147,68.929,3.442,72.9c2.295,3.971,5.412,7.104,9.351,9.398s8.236,3.442,12.891,3.442H82.08
	c4.654,0,8.968-1.147,12.939-3.442c3.971-2.295,7.112-5.428,9.424-9.398c2.311-3.972,3.467-8.301,3.467-12.988
	c0-3.451-0.732-6.918-2.197-10.4c3.972-4.85,5.957-10.596,5.957-17.236c0-3.71-0.716-7.25-2.148-10.62
	c-1.432-3.369-3.369-6.274-5.811-8.716s-5.348-4.378-8.716-5.811s-6.909-2.148-10.62-2.148c-7.715,0-14.453,3.027-20.215,9.082
	c-4.037-2.279-8.725-3.418-14.063-3.418c-7.324,0-13.802,2.271-19.434,6.812c-5.632,4.542-9.246,10.36-10.84,17.456
	c-5.826,1.334-10.587,4.329-14.282,8.984S-0.001,53.891,0,59.912L0,59.912z M8.887,59.912c0-4.362,1.457-8.121,4.37-11.279
	c2.914-3.157,6.567-4.997,10.962-5.518l2.588-0.146c0.651,0,0.977-0.31,0.977-0.928l0.342-2.832
	c0.716-5.631,3.157-10.343,7.324-14.136c4.167-3.792,9.049-5.688,14.648-5.688c5.729,0,10.718,1.904,14.966,5.713
	s6.632,8.512,7.153,14.111l0.391,3.027c0.131,0.586,0.488,0.879,1.074,0.879h8.398c4.59,0,8.545,1.66,11.865,4.98
	c3.32,3.32,4.979,7.258,4.979,11.816c0,4.72-1.651,8.748-4.956,12.085c-3.304,3.336-7.268,5.005-11.89,5.005H25.683
	c-4.558,0-8.496-1.685-11.816-5.054C10.547,68.578,8.887,64.566,8.887,59.912L8.887,59.912z M43.799-4.004
	c0,1.269,0.423,2.359,1.27,3.271l3.418,3.32c1.302,0.977,2.409,1.416,3.32,1.318c1.074,0,2.034-0.447,2.881-1.343
	s1.27-1.978,1.27-3.247s-0.456-2.294-1.367-3.076l-3.076-3.418c-0.944-0.847-2.002-1.27-3.174-1.27
	c-1.269,0-2.343,0.432-3.223,1.294c-0.879,0.862-1.319,1.912-1.318,3.149L43.799-4.004z M71.631,19.043
	c3.613-3.483,7.861-5.225,12.744-5.225c5.144,0,9.514,1.791,13.109,5.371c3.598,3.581,5.396,7.943,5.396,13.086
	c0,3.255-0.879,6.445-2.637,9.57c-5.045-4.981-11.1-7.471-18.164-7.471h-1.66C79.118,28.71,76.188,23.599,71.631,19.043
	L71.631,19.043z M80.078-8.447c0,1.334,0.406,2.409,1.221,3.223s1.84,1.221,3.076,1.221c1.334,0,2.409-0.407,3.223-1.221
	c0.814-0.814,1.221-1.888,1.221-3.223v-10.645c0-1.237-0.414-2.262-1.244-3.076s-1.896-1.221-3.198-1.221
	c-1.237,0-2.263,0.407-3.076,1.221s-1.221,1.839-1.221,3.076L80.078-8.447L80.078-8.447z M108.838,3.516
	c0,1.334,0.391,2.409,1.172,3.223c1.107,0.847,2.182,1.27,3.223,1.27c0.945,0,1.97-0.423,3.076-1.27l7.471-7.471
	c0.848-0.944,1.271-2.051,1.271-3.32c0-1.236-0.423-2.278-1.271-3.125c-0.846-0.846-1.871-1.27-3.075-1.27
	c-1.237,0-2.245,0.423-3.026,1.27l-7.666,7.471C109.229,1.238,108.839,2.313,108.838,3.516L108.838,3.516z M112.988,65.137
	c0,1.236,0.439,2.327,1.318,3.271l3.368,3.271c0.782,0.846,1.79,1.27,3.027,1.27c1.236,0,2.271-0.432,3.101-1.295
	c0.831-0.861,1.246-1.944,1.245-3.246c0-1.172-0.423-2.182-1.271-3.027l-3.368-3.369c-0.847-0.846-1.84-1.27-2.979-1.27
	c-1.236,0-2.286,0.424-3.148,1.27c-0.863,0.848-1.295,1.889-1.295,3.125H112.988z M120.605,32.275c0,1.205,0.455,2.214,1.367,3.027
	c0.846,0.847,1.904,1.27,3.174,1.27h10.645c1.205,0,2.205-0.407,3.003-1.221s1.196-1.839,1.196-3.076
	c0-1.236-0.398-2.286-1.196-3.149s-1.798-1.294-3.003-1.294h-10.645c-1.237,0-2.303,0.439-3.199,1.318
	C121.053,30.029,120.605,31.07,120.605,32.275L120.605,32.275z"/>
</svg>
