<?xml version="1.0" encoding="UTF-8" standalone="no"?>
<!-- Created with Inkscape (http://www.inkscape.org/) -->

<svg
   xmlns:dc="http://purl.org/dc/elements/1.1/"
   xmlns:cc="http://creativecommons.org/ns#"
   xmlns:rdf="http://www.w3.org/1999/02/22-rdf-syntax-ns#"
   xmlns:svg="http://www.w3.org/2000/svg"
   xmlns="http://www.w3.org/2000/svg"
   xmlns:sodipodi="http://sodipodi.sourceforge.net/DTD/sodipodi-0.dtd"
   xmlns:inkscape="http://www.inkscape.org/namespaces/inkscape"
   width="37.039021mm"
   height="28.872656mm"
   viewBox="0 0 37.039021 28.872656"
   version="1.1"
   id="svg63"
   inkscape:version="0.92.1 r15371"
   sodipodi:docname="day-mostly-cloudy.svg">
  <defs
     id="defs57" />
  <sodipodi:namedview
     id="base"
     pagecolor="#ffffff"
     bordercolor="#666666"
     borderopacity="1.0"
     inkscape:pageopacity="0.0"
     inkscape:pageshadow="2"
     inkscape:zoom="5.6"
     inkscape:cx="27.941087"
     inkscape:cy="62.522608"
     inkscape:document-units="mm"
     inkscape:current-layer="layer1"
     showgrid="false"
     inkscape:window-width="1920"
     inkscape:window-height="1017"
     inkscape:window-x="-8"
     inkscape:window-y="-8"
     inkscape:window-maximized="1" />
  <metadata
     id="metadata60">
    <rdf:RDF>
      <cc:Work
         rdf:about="">
        <dc:format>image/svg+xml</dc:format>
        <dc:type
           rdf:resource="http://purl.org/dc/dcmitype/StillImage" />
        <dc:title />
      </cc:Work>
    </rdf:RDF>
  </metadata>
  <g
     inkscape:label="Layer 1"
     inkscape:groupmode="layer"
     id="layer1"
     transform="translate(218.84689,5.4541851)">
    <path
       inkscape:connector-curvature="0"
       style="font-style:normal;font-variant:normal;font-weight:normal;font-stretch:normal;font-size:medium;line-height:1.25;font-family:'Weather Icons';-inkscape-font-specification:'Weather Icons';letter-spacing:0px;word-spacing:0px;fill:#e3c800;fill-opacity:1;stroke:none;stroke-width:0.65833211"
       d="m -196.43136,2.0861441 c -1.27722,0 -2.46866,0.3213796 -3.57446,0.9642822 -0.65188,0.3819615 -1.22155,0.8478448 -1.71307,1.3931966 0.42055,0.2304068 0.82687,0.500398 1.21801,0.8133871 0.23646,0.1881174 0.45846,0.385777 0.6687,0.5906616 0.94172,-0.9303358 2.07502,-1.3957805 3.40082,-1.3957805 1.33724,0 2.47754,0.4671131 3.42047,1.4014648 0.95149,0.9343518 1.4273,2.0616128 1.4273,3.3817055 0,0.9444956 -0.2426,1.7909356 -0.71727,2.5429976 0.42113,0.414263 0.78651,0.885811 1.09554,1.4149 0.10773,0.184446 0.20217,0.373172 0.29094,0.56379 0.23945,-0.294993 0.45977,-0.609087 0.65526,-0.947229 0.6429,-1.09722 0.96428,-2.288654 0.96428,-3.5744586 0,-0.9600673 -0.18869,-1.8812526 -0.56586,-2.7641722 -0.37717,-0.8829193 -0.88724,-1.6414996 -1.53014,-2.2758299 -0.63433,-0.6429026 -1.39291,-1.1529698 -2.27583,-1.5301392 -0.88292,-0.3857416 -1.80461,-0.578776 -2.76469,-0.578776 z"
       id="path4449" />
    <path
       style="font-style:normal;font-variant:normal;font-weight:normal;font-stretch:normal;font-size:medium;line-height:1.25;font-family:'Weather Icons';-inkscape-font-specification:'Weather Icons';letter-spacing:0px;word-spacing:0px;fill:#e3c800;fill-opacity:1;stroke:none;stroke-width:0.65833211"
       d="m -207.08217,-0.28784909 q 0,-0.47574785 0.32145,-0.83577321 0.3986,-0.3343093 0.87435,-0.3343093 0.45003,0 0.81006,0.3343093 l 1.95442,2.0187138 q 0.33431,0.3085932 0.33431,0.8100571 0,0.4886059 -0.33431,0.8229152 -0.32145,0.3214513 -0.81006,0.3214513 -0.50146,0 -0.81006,-0.3343093 l -2.01871,-1.9544236 q -0.32145,-0.34716735 -0.32145,-0.84863129 z"
       id="path4359" />
    <g
       aria-label="ï"
       transform="scale(0.99770341,1.0023019)"
       style="font-style:normal;font-variant:normal;font-weight:normal;font-stretch:normal;font-size:26.53838348px;line-height:1.25;font-family:'Weather Icons';-inkscape-font-specification:'Weather Icons';letter-spacing:0px;word-spacing:0px;fill:#ffffff;fill-opacity:1;stroke:none;stroke-width:0.6634596"
       id="text4335">
      <path
         d="m -219.44533,16.562796 q 0,-2.384308 1.49019,-4.250288 1.4902,-1.86598 3.7838,-2.3972662 0.64791,-2.8378447 2.91559,-4.651992 2.26769,-1.8271055 5.19624,-1.8271055 2.86376,0 5.09257,1.7752727 2.24177,1.7752727 2.91559,4.5483265 h 0.45354 q 1.86598,0 3.44688,0.9070735 1.5809,0.894116 2.50093,2.462057 0.92003,1.567942 0.92003,3.433922 0,1.827105 -0.88115,3.382089 -0.8682,1.554983 -2.39727,2.500931 -1.51611,0.93299 -3.33026,0.984823 h -15.47208 q -2.77306,-0.129582 -4.70383,-2.112186 -1.93077,-1.982603 -1.93077,-4.755657 z m 2.35839,0 q 0,1.801189 1.24399,3.135883 1.25695,1.321736 3.03222,1.412443 h 15.47208 q 1.77528,-0.09071 3.03222,-1.412443 1.25695,-1.334694 1.25695,-3.135883 0,-1.814147 -1.34766,-3.135883 -1.34765,-1.334694 -3.20067,-1.334694 h -2.24177 q -0.23325,0 -0.23325,-0.246206 l -0.10366,-0.79045 q -0.23325,-2.2417678 -1.93077,-3.7578766 -1.69753,-1.5161088 -3.95225,-1.5161088 -2.26769,0 -3.95225,1.5161088 -1.67161,1.5161088 -1.8919,3.7578766 l -0.10366,0.79045 q 0,0.246206 -0.27213,0.246206 h -0.72565 q -1.7364,0.207331 -2.9156,1.477234 -1.16624,1.269903 -1.16624,2.993343 z"
         style="fill:#ffffff;fill-opacity:1;stroke-width:0.6634596"
         id="path4408" />
    </g>
    <path
       style="font-style:normal;font-variant:normal;font-weight:normal;font-stretch:normal;font-size:medium;line-height:1.25;font-family:'Weather Icons';-inkscape-font-specification:'Weather Icons';letter-spacing:0px;word-spacing:0px;fill:#e3c800;fill-opacity:1;stroke:none;stroke-width:0.65833211"
       d="m -197.60579,-1.3936414 v -2.8030549 q 0,-0.4757478 0.34717,-0.8229152 0.34717,-0.3471673 0.82291,-0.3471673 0.47575,0 0.82292,0.3471673 0.34717,0.3471674 0.34717,0.8229152 v 2.8030549 q 0,0.47574786 -0.34717,0.79719911 -0.33431,0.3085932 -0.82292,0.3085932 -0.4886,0 -0.83577,-0.3085932 -0.33431,-0.32145125 -0.33431,-0.79719911 z"
       id="path4351" />
    <path
       style="font-style:normal;font-variant:normal;font-weight:normal;font-stretch:normal;font-size:medium;line-height:1.25;font-family:'Weather Icons';-inkscape-font-specification:'Weather Icons';letter-spacing:0px;word-spacing:0px;fill:#e3c800;fill-opacity:1;stroke:none;stroke-width:0.65833211"
       d="m -190.0324,16.684777 q 0,-0.475748 0.3086,-0.771483 0.30859,-0.321451 0.77148,-0.321451 0.50146,0 0.82292,0.321451 l 2.00585,1.954423 q 0.33431,0.360026 0.33431,0.835774 0,0.475748 -0.33431,0.810057 -0.82291,0.642902 -1.64583,0 l -1.95442,-1.954424 q -0.3086,-0.347167 -0.3086,-0.874347 z"
       id="path4349" />
    <path
       style="font-style:normal;font-variant:normal;font-weight:normal;font-stretch:normal;font-size:medium;line-height:1.25;font-family:'Weather Icons';-inkscape-font-specification:'Weather Icons';letter-spacing:0px;word-spacing:0px;fill:#e3c800;fill-opacity:1;stroke:none;stroke-width:0.65833211"
       d="m -190.0324,1.7051486 q 0,-0.5143219 0.3086,-0.8100571 l 1.95442,-2.0187138 q 0.36003,-0.3343093 0.81006,-0.3343093 0.4886,0 0.82291,0.3471673 0.34717,0.34716736 0.34717,0.82291521 0,0.51432199 -0.33431,0.84863129 l -2.00585,1.9544236 q -0.37289,0.3343093 -0.82292,0.3343093 -0.46289,0 -0.77148,-0.3214513 -0.3086,-0.3343093 -0.3086,-0.8229152 z"
       id="path4347" />
    <path
       style="font-style:normal;font-variant:normal;font-weight:normal;font-stretch:normal;font-size:medium;line-height:1.25;font-family:'Weather Icons';-inkscape-font-specification:'Weather Icons';letter-spacing:0px;word-spacing:0px;fill:#e3c800;fill-opacity:1;stroke:none;stroke-width:0.65833211"
       d="m -186.61215,10.037165 q -0.32146,-0.3471673 -0.32146,-0.8357732 0,-0.4886059 0.33431,-0.8486313 0.33431,-0.3343093 0.78434,-0.3343093 h 2.77734 q 0.47575,0 0.82292,0.3600254 0.36002,0.3471673 0.36002,0.8229152 0,0.4757478 -0.36002,0.8229152 -0.34717,0.347167 -0.82292,0.347167 h -2.77734 q -0.47574,0 -0.79719,-0.334309 z"
       id="path4341" />
  </g>
</svg>
