<?xml version="1.0" encoding="utf-8"?>
<!-- Generator: Adobe Illustrator 15.0.0, SVG Export Plug-In . SVG Version: 6.00 Build 0)  -->
<!DOCTYPE svg PUBLIC "-//W3C//DTD SVG 1.1//EN" "http://www.w3.org/Graphics/SVG/1.1/DTD/svg11.dtd">
<svg version="1.1" id="Layer_1" xmlns="http://www.w3.org/2000/svg" xmlns:xlink="http://www.w3.org/1999/xlink" x="0px" y="0px"
	 width="107.959px" height="104.1px" viewBox="0 10.645 107.959 104.1" enable-background="new 0 10.645 107.959 104.1"
	 xml:space="preserve">
<path d="M0,60.156c0-6.022,1.847-11.369,5.542-16.04c3.695-4.671,8.456-7.723,14.282-9.155c1.627-7.097,5.281-12.923,10.962-17.48
	s12.199-6.835,19.556-6.836c7.162,0,13.55,2.222,19.165,6.665c5.616,4.443,9.27,10.148,10.962,17.114h1.66
	c4.654,0,8.968,1.147,12.939,3.442c3.971,2.294,7.112,5.419,9.424,9.375c2.311,3.955,3.467,8.261,3.467,12.915
	c0,6.9-2.409,12.842-7.227,17.822c-4.818,4.979-10.678,7.584-17.578,7.813c-0.684,0-1.025-0.293-1.025-0.879v-6.934
	c0-0.619,0.342-0.929,1.025-0.929c4.428-0.228,8.211-1.993,11.353-5.298s4.712-7.17,4.712-11.598c0-4.622-1.676-8.609-5.029-11.962
	c-3.352-3.353-7.373-5.029-12.061-5.029H73.73c-0.618,0-0.928-0.293-0.928-0.879l-0.391-3.027
	c-0.586-5.631-3.003-10.351-7.251-14.16s-9.188-5.713-14.819-5.713c-5.729,0-10.702,1.921-14.917,5.762s-6.6,8.61-7.153,14.307
	l-0.293,2.588c0,0.651-0.342,0.977-1.025,0.977L24.22,43.36c-4.33,0.358-7.967,2.157-10.913,5.396
	c-2.946,3.239-4.419,7.04-4.419,11.401c0,4.427,1.57,8.293,4.712,11.597c3.141,3.305,6.926,5.07,11.353,5.299
	c0.586,0,0.879,0.309,0.879,0.928v6.934c0,0.586-0.293,0.879-0.879,0.879c-6.966-0.229-12.866-2.832-17.7-7.813
	S0.002,67.059,0.002,60.158L0,60.156z M28.662,100.244c0-1.205,0.439-2.246,1.318-3.125c0.847-0.781,1.84-1.172,2.979-1.172
	c1.205,0,2.222,0.406,3.052,1.221c0.83,0.814,1.245,1.84,1.245,3.076s-0.415,2.262-1.245,3.076c-0.83,0.813-1.848,1.221-3.052,1.221
	s-2.222-0.407-3.052-1.221C29.077,102.506,28.662,101.48,28.662,100.244z M33.154,81.348c0-1.172,0.415-2.181,1.245-3.027
	c0.83-0.846,1.848-1.269,3.052-1.27c1.205,0,2.222,0.423,3.052,1.27c0.83,0.848,1.245,1.857,1.245,3.027
	c0,1.236-0.415,2.287-1.245,3.149s-1.847,1.294-3.052,1.294c-1.205,0-2.222-0.432-3.052-1.294S33.154,82.584,33.154,81.348z
	 M43.066,110.449c0-1.172,0.439-2.23,1.318-3.174c0.847-0.848,1.84-1.271,2.979-1.271c1.237,0,2.295,0.439,3.174,1.317
	c0.879,0.879,1.318,1.921,1.318,3.125c0,1.205-0.44,2.223-1.318,3.053s-1.936,1.245-3.174,1.245c-1.172,0-2.181-0.415-3.027-1.245
	c-0.846-0.83-1.269-1.848-1.27-3.053V110.449z M47.559,91.406c0-1.236,0.423-2.311,1.27-3.223c0.847-0.848,1.855-1.271,3.027-1.271
	c1.205,0,2.247,0.439,3.125,1.317c0.879,0.879,1.318,1.938,1.318,3.174c0,1.205-0.432,2.239-1.294,3.102
	c-0.863,0.863-1.912,1.294-3.149,1.294c-1.172,0-2.181-0.431-3.027-1.294c-0.846-0.862-1.27-1.896-1.27-3.102V91.406z
	 M49.756,72.559c0-1.204,0.439-2.246,1.318-3.125c0.911-0.846,1.904-1.27,2.979-1.27c1.236,0,2.294,0.432,3.173,1.294
	c0.88,0.862,1.319,1.896,1.318,3.101c0,1.205-0.439,2.223-1.318,3.053c-0.877,0.83-1.936,1.244-3.173,1.244
	c-1.172,0-2.181-0.414-3.027-1.244C50.18,74.781,49.757,73.764,49.756,72.559z M62.109,100.244c0-1.172,0.423-2.214,1.27-3.125
	c0.847-0.781,1.889-1.172,3.125-1.172s2.262,0.406,3.076,1.221s1.221,1.84,1.221,3.076s-0.406,2.262-1.221,3.076
	c-0.814,0.813-1.84,1.221-3.076,1.221s-2.278-0.415-3.125-1.245S62.109,101.449,62.109,100.244L62.109,100.244z M66.553,81.348
	c0-1.139,0.439-2.141,1.318-3.002c0.879-0.863,1.92-1.295,3.125-1.295s2.222,0.424,3.052,1.27c0.83,0.848,1.245,1.856,1.245,3.027
	c0,1.236-0.415,2.287-1.245,3.149s-1.847,1.294-3.052,1.294c-1.236,0-2.287-0.439-3.148-1.318
	C66.984,83.594,66.553,82.553,66.553,81.348z"/>
</svg>
