<?xml version="1.0" encoding="utf-8"?>
<!-- Generator: Adobe Illustrator 15.0.0, SVG Export Plug-In . SVG Version: 6.00 Build 0)  -->
<!DOCTYPE svg PUBLIC "-//W3C//DTD SVG 1.1//EN" "http://www.w3.org/Graphics/SVG/1.1/DTD/svg11.dtd">
<svg version="1.1" id="Layer_1" xmlns="http://www.w3.org/2000/svg" xmlns:xlink="http://www.w3.org/1999/xlink" x="0px" y="0px"
	 width="128.954px" height="91.505px" viewBox="0 10.448 128.954 91.505" enable-background="new 0 10.448 128.954 91.505"
	 xml:space="preserve">
<path d="M0,81.494c0-1.27,0.439-2.328,1.318-3.174c0.879-0.848,1.969-1.271,3.271-1.271h97.218c1.301,0,2.367,0.415,3.197,1.245
	s1.245,1.896,1.245,3.198c0,1.204-0.431,2.214-1.294,3.026c-0.863,0.814-1.912,1.221-3.148,1.222H4.589
	c-1.302,0-2.392-0.407-3.271-1.222C0.439,83.706,0,82.697,0,81.494L0,81.494z M13.623,65.137c0-1.27,0.456-2.311,1.367-3.125
	c0.781-0.781,1.807-1.172,3.076-1.172h97.266c1.205,0,2.214,0.415,3.027,1.245c0.813,0.83,1.221,1.847,1.221,3.052
	c0,1.236-0.407,2.287-1.221,3.149c-0.814,0.862-1.823,1.294-3.027,1.294H18.066c-1.237,0-2.286-0.439-3.149-1.318
	S13.623,66.342,13.623,65.137z M14.307,52.734c0,0.455,0.26,0.684,0.781,0.684h7.471c0.325,0,0.667-0.277,1.025-0.83
	c1.237-2.702,3.084-4.916,5.542-6.641c2.458-1.725,5.152-2.702,8.081-2.93l2.881-0.391c0.586,0,0.879-0.309,0.879-0.928l0.342-2.588
	c0.553-5.631,2.938-10.327,7.153-14.087c4.215-3.76,9.155-5.64,14.819-5.64c5.631,0,10.54,1.855,14.722,5.566
	c4.184,3.71,6.567,8.365,7.153,13.965l0.391,2.979c0,0.586,0.342,0.879,1.025,0.879h8.301c3.353,0,6.404,0.896,9.154,2.686
	c2.752,1.791,4.794,4.167,6.129,7.129c0.357,0.554,0.716,0.83,1.074,0.83h7.471c0.619,0,0.862-0.391,0.732-1.172
	c-1.531-5.339-4.559-9.701-9.082-13.086c-4.525-3.385-9.686-5.078-15.479-5.078h-1.66c-1.726-6.934-5.362-12.606-10.913-17.017
	c-5.55-4.411-11.89-6.617-19.019-6.616c-7.292,0-13.77,2.287-19.434,6.86s-9.294,10.408-10.889,17.505
	c-4.427,1.042-8.31,3.142-11.646,6.299c-3.337,3.158-5.656,6.934-6.958,11.328v-0.194c-0.033,0.097-0.049,0.26-0.049,0.487
	L14.307,52.734z M22.705,97.461c0-1.236,0.456-2.262,1.367-3.076c0.782-0.781,1.823-1.172,3.125-1.172h97.315
	c1.236,0,2.285,0.407,3.148,1.221c0.862,0.814,1.294,1.823,1.294,3.027c0,1.236-0.439,2.295-1.317,3.174
	c-0.879,0.879-1.921,1.318-3.125,1.318H27.197c-1.205,0-2.254-0.447-3.149-1.344C23.153,99.715,22.706,98.665,22.705,97.461z"/>
</svg>
