<?xml version="1.0" encoding="utf-8"?>
<!-- Generator: Adobe Illustrator 15.0.0, SVG Export Plug-In . SVG Version: 6.00 Build 0)  -->
<!DOCTYPE svg PUBLIC "-//W3C//DTD SVG 1.1//EN" "http://www.w3.org/Graphics/SVG/1.1/DTD/svg11.dtd">
<svg version="1.1" id="Layer_1" xmlns="http://www.w3.org/2000/svg" xmlns:xlink="http://www.w3.org/1999/xlink" x="0px" y="0px"
	 width="110.693px" height="87.793px" viewBox="0 -2.1 110.693 87.793" enable-background="new 0 -2.1 110.693 87.793"
	 xml:space="preserve">
<path d="M0,53.223c0-1.236,0.439-2.295,1.318-3.174c0.944-0.878,1.986-1.318,3.125-1.318h10.645c1.205,0,2.206,0.439,3.003,1.318
	c0.797,0.879,1.196,1.938,1.196,3.174c0,1.238-0.399,2.287-1.196,3.149s-1.798,1.294-3.003,1.294H4.443
	c-1.205,0-2.246-0.439-3.125-1.318C0.439,55.469,0,54.428,0,53.223z M14.893,17.236c0-1.205,0.407-2.263,1.221-3.174
	c1.042-0.879,2.149-1.318,3.32-1.318c1.106,0,2.132,0.439,3.076,1.318l7.422,7.617c0.847,0.781,1.27,1.807,1.27,3.076
	c0,1.237-0.415,2.271-1.245,3.101s-1.864,1.246-3.101,1.245c-1.27,0-2.294-0.423-3.076-1.27l-7.666-7.422
	C15.3,19.53,14.893,18.472,14.893,17.236L14.893,17.236z M15.723,65.723c0-1.172,0.407-2.132,1.221-2.881
	c0.814-0.748,1.921-1.123,3.32-1.123H50c1.4,0,2.515,0.375,3.345,1.123c0.83,0.749,1.245,1.709,1.245,2.881
	c0,1.4-0.407,2.516-1.221,3.346S51.432,70.313,50,70.313H20.264c-1.4,0-2.507-0.406-3.32-1.221
	C16.131,68.277,15.724,67.154,15.723,65.723L15.723,65.723z M20.85,81.104c0-1.139,0.48-2.181,1.44-3.125
	c0.96-0.943,2.01-1.416,3.149-1.416c1.367,0,2.466,0.456,3.296,1.367c0.83,0.912,1.245,1.97,1.245,3.174
	c0,1.433-0.407,2.556-1.221,3.369c-0.814,0.814-1.92,1.221-3.32,1.221c-1.205,0-2.271-0.423-3.198-1.27
	C21.313,83.577,20.85,82.471,20.85,81.104L20.85,81.104z M28.223,54.736v-0.342c0.163-6.543,2.433-12.24,6.812-17.09
	c4.378-4.851,9.758-7.78,16.138-8.789h0.244c1.009-0.195,2.328-0.293,3.955-0.293c1.628,0,2.946,0.098,3.955,0.293h0.194
	c6.381,1.009,11.76,3.939,16.139,8.789c4.379,4.85,6.648,10.546,6.813,17.09v0.342c0,0.846-0.391,1.27-1.173,1.27h-5.907
	c-0.619,0-1.059-0.162-1.318-0.488c-0.26-0.324-0.391-0.635-0.391-0.928c-0.195-4.85-2.067-8.959-5.615-12.329
	c-3.549-3.37-7.779-5.054-12.695-5.054c-4.916,0-9.147,1.685-12.695,5.054c-3.548,3.369-5.42,7.479-5.615,12.329
	c0,0.293-0.138,0.602-0.415,0.928c-0.276,0.326-0.724,0.489-1.343,0.488h-5.908c-0.781,0-1.172-0.424-1.172-1.27H28.223z
	 M33.447,81.104c0-1.204,0.415-2.262,1.245-3.174c0.83-0.911,1.929-1.367,3.296-1.367h19.971c1.139,0,2.189,0.473,3.148,1.416
	c0.961,0.944,1.44,1.986,1.44,3.125c0,1.367-0.464,2.475-1.392,3.32s-1.994,1.27-3.198,1.27H37.987c-1.4,0-2.506-0.406-3.32-1.221
	C33.854,83.659,33.447,82.536,33.447,81.104L33.447,81.104z M50.879,12.988V2.392c0-1.237,0.439-2.295,1.318-3.174
	c0.879-0.879,1.92-1.318,3.125-1.318c1.206,0.001,2.247,0.44,3.125,1.318c0.879,0.878,1.318,1.936,1.318,3.174v10.596
	c0,1.205-0.432,2.214-1.295,3.027c-0.862,0.813-1.912,1.22-3.149,1.221c-1.236,0.001-2.286-0.406-3.149-1.221
	C51.311,15.2,50.879,14.191,50.879,12.988L50.879,12.988z M57.959,65.723c0-1.106,0.473-2.051,1.416-2.832s2.002-1.172,3.174-1.172
	s2.23,0.391,3.174,1.172c0.944,0.781,1.416,1.726,1.416,2.832c0,1.367-0.464,2.475-1.392,3.32c-0.929,0.846-1.994,1.27-3.198,1.27
	c-1.203,0.001-2.27-0.422-3.197-1.27C58.423,68.195,57.959,67.089,57.959,65.723L57.959,65.723z M65.967,81.104
	c0-1.204,0.424-2.262,1.27-3.174c0.848-0.911,1.954-1.367,3.32-1.367h9.668c1.367,0,2.467,0.456,3.297,1.367
	c0.83,0.912,1.244,1.97,1.244,3.174c0,1.433-0.398,2.556-1.195,3.369c-0.798,0.814-1.912,1.221-3.346,1.221h-9.668
	c-1.399,0-2.515-0.406-3.345-1.221C66.382,83.659,65.967,82.536,65.967,81.104L65.967,81.104z M70.557,65.723
	c0-1.106,0.465-2.051,1.393-2.832s1.978-1.172,3.148-1.172h15.967c1.141,0,2.084,0.383,2.832,1.147
	c0.749,0.765,1.123,1.716,1.123,2.856c0,1.399-0.365,2.514-1.099,3.344c-0.732,0.83-1.685,1.246-2.856,1.246H75.098
	c-1.204,0-2.262-0.424-3.174-1.271C71.013,68.195,70.557,67.089,70.557,65.723L70.557,65.723z M79.639,24.756
	c0-1.302,0.391-2.327,1.172-3.076l7.422-7.617c0.945-0.879,1.97-1.318,3.076-1.318c1.205,0,2.246,0.439,3.125,1.318
	s1.318,1.937,1.318,3.174c0,1.27-0.424,2.328-1.27,3.174l-7.617,7.422c-0.944,0.847-1.986,1.27-3.125,1.27
	c-1.172,0-2.148-0.415-2.93-1.245S79.639,25.994,79.639,24.756L79.639,24.756z M91.406,53.223c0-1.204,0.423-2.262,1.27-3.174
	c0.879-0.878,1.872-1.318,2.979-1.318h10.548c1.204,0,2.255,0.448,3.149,1.343c0.895,0.895,1.342,1.945,1.342,3.148
	c0.002,1.205-0.446,2.246-1.342,3.125c-0.896,0.88-1.946,1.318-3.149,1.318H95.654c-1.204,0-2.213-0.432-3.026-1.294
	S91.408,54.459,91.406,53.223L91.406,53.223z"/>
</svg>
