<?xml version="1.0" encoding="utf-8"?>
<!-- Generator: Adobe Illustrator 15.0.0, SVG Export Plug-In . SVG Version: 6.00 Build 0)  -->
<!DOCTYPE svg PUBLIC "-//W3C//DTD SVG 1.1//EN" "http://www.w3.org/Graphics/SVG/1.1/DTD/svg11.dtd">
<svg version="1.1" id="Layer_1" xmlns="http://www.w3.org/2000/svg" xmlns:xlink="http://www.w3.org/1999/xlink" x="0px" y="0px"
	 width="37.499px" height="75.048px" viewBox="37.549 10.645 37.499 75.048" enable-background="new 37.549 10.645 37.499 75.048"
	 xml:space="preserve">
<path d="M37.549,85.693c6.804,0,13.078-1.677,18.823-5.029s10.294-7.91,13.647-13.672c3.352-5.762,5.028-12.045,5.028-18.848
	s-1.677-13.078-5.028-18.823c-3.354-5.745-7.902-10.294-13.647-13.647c-5.745-3.353-12.02-5.029-18.823-5.029
	c3.679,1.953,6.894,4.387,9.644,7.3c2.751,2.914,4.916,6.055,6.495,9.424c1.578,3.369,2.75,6.779,3.516,10.229
	c0.766,3.45,1.147,6.965,1.146,10.547c0,3.027-0.146,5.851-0.438,8.472c-0.293,2.621-0.887,5.428-1.782,8.423
	c-0.895,2.995-2.075,5.696-3.54,8.104c-1.464,2.409-3.483,4.729-6.055,6.959C43.962,82.333,40.967,84.197,37.549,85.693
	L37.549,85.693z"/>
</svg>
