<?xml version="1.0" encoding="utf-8"?>
<!-- Generator: Adobe Illustrator 15.0.0, SVG Export Plug-In . SVG Version: 6.00 Build 0)  -->
<!DOCTYPE svg PUBLIC "-//W3C//DTD SVG 1.1//EN" "http://www.w3.org/Graphics/SVG/1.1/DTD/svg11.dtd">
<svg version="1.1" id="Layer_1" xmlns="http://www.w3.org/2000/svg" xmlns:xlink="http://www.w3.org/1999/xlink" x="0px" y="0px"
	 width="48.292px" height="75.148px" viewBox="26.855 10.545 48.292 75.148" enable-background="new 26.855 10.545 48.292 75.148"
	 xml:space="preserve">
<path d="M26.855,48.096c0,7.975,0.79,15.08,2.368,21.313s4.37,11.661,8.374,16.284c5.078,0,9.936-0.993,14.575-2.979
	c4.639-1.985,8.635-4.655,11.987-8.008s6.022-7.349,8.008-11.987s2.979-9.514,2.979-14.624c0-5.111-0.994-9.978-2.979-14.6
	s-4.655-8.61-8.008-11.963c-3.353-3.353-7.349-6.022-11.987-8.008s-9.497-2.979-14.575-2.979c-3.386,4.85-6.022,10.547-7.91,17.09
	c-1.888,6.543-2.832,13.363-2.832,20.459V48.096z"/>
</svg>
