<?xml version="1.0" encoding="utf-8"?>
<!-- Generator: Adobe Illustrator 15.0.0, SVG Export Plug-In . SVG Version: 6.00 Build 0)  -->
<!DOCTYPE svg PUBLIC "-//W3C//DTD SVG 1.1//EN" "http://www.w3.org/Graphics/SVG/1.1/DTD/svg11.dtd">
<svg version="1.1" id="Layer_1" xmlns="http://www.w3.org/2000/svg" xmlns:xlink="http://www.w3.org/1999/xlink" x="0px" y="0px"
	 width="37.5px" height="75.048px" viewBox="0 10.645 37.5 75.048" enable-background="new 0 10.645 37.5 75.048"
	 xml:space="preserve">
<path d="M0,48.145c0,6.803,1.676,13.085,5.029,18.848c3.353,5.762,7.902,10.319,13.647,13.672c5.746,3.353,12.02,5.028,18.823,5.028
	c-9.96-7.779-14.941-20.296-14.941-37.548c0-7.748,1.392-14.86,4.175-21.338S33.105,14.942,37.5,10.645
	c-6.803,0-13.078,1.676-18.823,5.029C12.932,19.027,8.383,23.576,5.03,29.321C1.677,35.066,0.001,41.341,0,48.145L0,48.145z"/>
</svg>
