<?xml version="1.0" encoding="utf-8"?>
<!-- Generator: Adobe Illustrator 15.0.0, SVG Export Plug-In . SVG Version: 6.00 Build 0)  -->
<!DOCTYPE svg PUBLIC "-//W3C//DTD SVG 1.1//EN" "http://www.w3.org/Graphics/SVG/1.1/DTD/svg11.dtd">
<svg version="1.1" id="Layer_1" xmlns="http://www.w3.org/2000/svg" xmlns:xlink="http://www.w3.org/1999/xlink" x="0px" y="0px"
	 width="37.499px" height="75.048px" viewBox="37.549 10.645 37.499 75.048" enable-background="new 37.549 10.645 37.499 75.048"
	 xml:space="preserve">
<path d="M37.549,85.693c6.804,0,13.078-1.677,18.823-5.029s10.294-7.91,13.647-13.672c3.352-5.762,5.028-12.045,5.028-18.848
	s-1.677-13.078-5.028-18.823c-3.354-5.745-7.902-10.294-13.647-13.647c-5.745-3.353-12.02-5.029-18.823-5.029
	c4.395,1.725,8.252,4.012,11.572,6.86c3.32,2.848,5.932,5.981,7.837,9.399s3.313,6.901,4.224,10.449
	c0.912,3.548,1.367,7.145,1.367,10.791c0,2.148-0.081,4.192-0.244,6.127c-0.162,1.938-0.488,4.013-0.977,6.227
	s-1.115,4.281-1.881,6.201c-0.764,1.92-1.789,3.849-3.075,5.785c-1.286,1.938-2.783,3.695-4.492,5.273
	c-1.708,1.578-3.784,3.059-6.226,4.443c-2.442,1.384-5.144,2.547-8.105,3.49V85.693z"/>
</svg>
