<?xml version="1.0" encoding="utf-8"?>
<!-- Generator: Adobe Illustrator 15.0.0, SVG Export Plug-In . SVG Version: 6.00 Build 0)  -->
<!DOCTYPE svg PUBLIC "-//W3C//DTD SVG 1.1//EN" "http://www.w3.org/Graphics/SVG/1.1/DTD/svg11.dtd">
<svg version="1.1" id="Layer_1" xmlns="http://www.w3.org/2000/svg" xmlns:xlink="http://www.w3.org/1999/xlink" x="0px" y="0px"
	 width="59.034px" height="74.755px" viewBox="0 10.938 59.034 74.755" enable-background="new 0 10.938 59.034 74.755"
	 xml:space="preserve">
<path d="M0,48.291c0,4.069,0.626,8.008,1.88,11.816c1.253,3.808,3.036,7.242,5.347,10.303s4.997,5.746,8.057,8.057
	s6.494,4.094,10.303,5.348s7.748,1.881,11.816,1.879c14.421-5.762,21.631-18.229,21.631-37.401c0-4.623-0.603-8.993-1.808-13.11
	c-1.204-4.118-2.84-7.707-4.906-10.767c-2.067-3.061-4.354-5.714-6.86-7.959c-2.507-2.246-5.192-4.084-8.057-5.518
	c-6.771,0-13.028,1.668-18.774,5.005c-5.745,3.337-10.286,7.87-13.623,13.599C1.669,35.271,0.001,41.521,0,48.291L0,48.291z"/>
</svg>
