<?xml version="1.0" encoding="utf-8"?>
<!-- Generator: Adobe Illustrator 15.0.0, SVG Export Plug-In . SVG Version: 6.00 Build 0)  -->
<!DOCTYPE svg PUBLIC "-//W3C//DTD SVG 1.1//EN" "http://www.w3.org/Graphics/SVG/1.1/DTD/svg11.dtd">
<svg version="1.1" id="Layer_1" xmlns="http://www.w3.org/2000/svg" xmlns:xlink="http://www.w3.org/1999/xlink" x="0px" y="0px"
	 width="55.469px" height="74.853px" viewBox="0 10.841 55.469 74.853" enable-background="new 0 10.841 55.469 74.853"
	 xml:space="preserve">
<path d="M0,48.291c0,4.069,0.626,8.008,1.88,11.816c1.253,3.808,3.036,7.242,5.347,10.303s4.997,5.746,8.057,8.057
	s6.494,4.094,10.303,5.348s7.748,1.881,11.816,1.879c12.044-6.9,18.066-19.368,18.066-37.401c0-4.362-0.496-8.521-1.488-12.476
	c-0.993-3.955-2.36-7.479-4.103-10.571c-1.742-3.092-3.654-5.827-5.737-8.203c-2.083-2.376-4.329-4.444-6.738-6.201
	c-5.078,0-9.928,0.985-14.551,2.954s-8.602,4.63-11.938,7.983c-3.336,3.353-5.989,7.34-7.959,11.963C0.985,38.364,0,43.214,0,48.291
	L0,48.291z"/>
</svg>
