<?xml version="1.0" encoding="utf-8"?>
<!-- Generator: Adobe Illustrator 15.0.0, SVG Export Plug-In . SVG Version: 6.00 Build 0)  -->
<!DOCTYPE svg PUBLIC "-//W3C//DTD SVG 1.1//EN" "http://www.w3.org/Graphics/SVG/1.1/DTD/svg11.dtd">
<svg version="1.1" id="Layer_1" xmlns="http://www.w3.org/2000/svg" xmlns:xlink="http://www.w3.org/1999/xlink" x="0px" y="0px"
	 width="59.036px" height="75.147px" viewBox="16.113 10.548 59.036 75.147" enable-background="new 16.113 10.548 59.036 75.147"
	 xml:space="preserve">
<path d="M16.113,48.096c0,3.417,0.195,6.568,0.586,9.448c0.391,2.881,1.082,5.762,2.075,8.644c0.993,2.881,2.287,5.485,3.882,7.813
	c1.596,2.327,3.655,4.5,6.177,6.52c2.522,2.018,5.444,3.744,8.765,5.176c5.11,0,9.977-0.993,14.599-2.979
	c4.623-1.985,8.611-4.655,11.964-8.008s6.022-7.349,8.008-11.987s2.979-9.514,2.979-14.624c0-6.804-1.677-13.086-5.029-18.848
	c-3.354-5.762-7.91-10.319-13.672-13.672c-5.762-3.353-12.045-5.029-18.848-5.029c-6.641,3.32-11.882,8.374-15.723,15.161
	C18.035,32.497,16.114,39.959,16.113,48.096L16.113,48.096z"/>
</svg>
