<?xml version="1.0" encoding="utf-8"?>
<!-- Generator: Adobe Illustrator 15.0.0, SVG Export Plug-In . SVG Version: 6.00 Build 0)  -->
<!DOCTYPE svg PUBLIC "-//W3C//DTD SVG 1.1//EN" "http://www.w3.org/Graphics/SVG/1.1/DTD/svg11.dtd">
<svg version="1.1" id="Layer_1" xmlns="http://www.w3.org/2000/svg" xmlns:xlink="http://www.w3.org/1999/xlink" x="0px" y="0px"
	 width="37.549px" height="75.048px" viewBox="0 10.645 37.549 75.048" enable-background="new 0 10.645 37.549 75.048"
	 xml:space="preserve">
<path d="M0,48.145c0,6.803,1.676,13.085,5.029,18.848c3.353,5.762,7.91,10.319,13.672,13.672c5.762,3.353,12.044,5.028,18.848,5.028
	c-6.901-3.352-11.963-8.162-15.186-14.428c-3.223-6.268-4.834-13.975-4.834-23.121c0-8.431,1.88-15.934,5.64-22.51
	c3.76-6.576,8.553-11.572,14.38-14.99c-6.803,0-13.086,1.676-18.848,5.029c-5.762,3.353-10.319,7.902-13.672,13.647
	C1.676,35.066,0,41.341,0,48.145L0,48.145z"/>
</svg>
