<?xml version="1.0" encoding="utf-8"?>
<!-- Generator: Adobe Illustrator 15.0.0, SVG Export Plug-In . SVG Version: 6.00 Build 0)  -->
<!DOCTYPE svg PUBLIC "-//W3C//DTD SVG 1.1//EN" "http://www.w3.org/Graphics/SVG/1.1/DTD/svg11.dtd">
<svg version="1.1" id="Layer_1" xmlns="http://www.w3.org/2000/svg" xmlns:xlink="http://www.w3.org/1999/xlink" x="0px" y="0px"
	 width="51.904px" height="74.902px" viewBox="0 10.791 51.904 74.902" enable-background="new 0 10.791 51.904 74.902"
	 xml:space="preserve">
<path d="M0,48.242c0,5.078,0.985,9.928,2.954,14.551s4.63,8.61,7.983,11.963c3.353,3.354,7.34,6.014,11.963,7.982
	c4.623,1.971,9.473,2.955,14.551,2.955c9.635-7.976,14.453-20.459,14.453-37.451c0-7.813-1.359-14.885-4.077-21.216
	c-2.718-6.331-6.177-11.743-10.376-16.235c-6.771,0-13.037,1.676-18.799,5.029C12.89,19.173,8.341,23.722,5.005,29.467
	C1.669,35.212,0,41.47,0,48.242L0,48.242z"/>
</svg>
