<?xml version="1.0" encoding="utf-8"?>
<!-- Generator: Adobe Illustrator 15.0.0, SVG Export Plug-In . SVG Version: 6.00 Build 0)  -->
<!DOCTYPE svg PUBLIC "-//W3C//DTD SVG 1.1//EN" "http://www.w3.org/Graphics/SVG/1.1/DTD/svg11.dtd">
<svg version="1.1" id="Layer_1" xmlns="http://www.w3.org/2000/svg" xmlns:xlink="http://www.w3.org/1999/xlink" x="0px" y="0px"
	 width="51.855px" height="75.147px" viewBox="23.291 10.546 51.855 75.147" enable-background="new 23.291 10.546 51.855 75.147"
	 xml:space="preserve">
<path d="M23.291,48.096c0,3.971,0.22,7.633,0.659,10.986c0.439,3.353,1.18,6.673,2.222,9.961s2.523,6.34,4.443,9.154
	c1.92,2.816,4.247,5.314,6.982,7.496c5.11,0,9.977-0.993,14.6-2.979c4.623-1.985,8.609-4.655,11.963-8.008
	c3.353-3.353,6.021-7.349,8.008-11.987s2.979-9.514,2.979-14.624c0-6.804-1.676-13.086-5.028-18.848
	c-3.353-5.762-7.91-10.319-13.673-13.672c-5.762-3.353-12.044-5.029-18.847-5.029c-4.492,4.33-8,9.807-10.522,16.431
	C24.553,33.602,23.292,40.641,23.291,48.096L23.291,48.096z"/>
</svg>
