<?xml version="1.0" encoding="utf-8"?>
<!-- Generator: Adobe Illustrator 15.0.0, SVG Export Plug-In . SVG Version: 6.00 Build 0)  -->
<!DOCTYPE svg PUBLIC "-//W3C//DTD SVG 1.1//EN" "http://www.w3.org/Graphics/SVG/1.1/DTD/svg11.dtd">
<svg version="1.1" id="Layer_1" xmlns="http://www.w3.org/2000/svg" xmlns:xlink="http://www.w3.org/1999/xlink" x="0px" y="0px"
	 width="37.5px" height="75.047px" viewBox="0 10.646 37.5 75.047" enable-background="new 0 10.646 37.5 75.047"
	 xml:space="preserve">
<path d="M0,48.145c0,6.803,1.676,13.085,5.029,18.848c3.353,5.762,7.902,10.319,13.647,13.672c5.746,3.353,12.02,5.028,18.823,5.028
	c-4.85-1.854-9.065-3.938-12.646-6.25c-3.581-2.311-6.437-4.646-8.569-7.006c-2.132-2.36-3.833-4.957-5.103-7.789
	s-2.125-5.518-2.563-8.057c-0.439-2.539-0.659-5.338-0.659-8.398c0-2.181,0.09-4.19,0.269-6.03s0.537-3.809,1.074-5.908
	c0.537-2.099,1.252-4.044,2.148-5.835c0.895-1.791,2.1-3.638,3.613-5.542c1.513-1.904,3.279-3.654,5.298-5.249
	c2.019-1.595,4.477-3.174,7.373-4.736c2.897-1.562,6.152-2.978,9.766-4.248c-6.803,0-13.078,1.676-18.823,5.029
	C12.932,19.028,8.383,23.577,5.03,29.322C1.677,35.067,0.001,41.342,0,48.145L0,48.145z"/>
</svg>
