<?xml version="1.0" encoding="utf-8"?>
<!-- Generator: Adobe Illustrator 15.0.0, SVG Export Plug-In . SVG Version: 6.00 Build 0)  -->
<!DOCTYPE svg PUBLIC "-//W3C//DTD SVG 1.1//EN" "http://www.w3.org/Graphics/SVG/1.1/DTD/svg11.dtd">
<svg version="1.1" id="Layer_1" xmlns="http://www.w3.org/2000/svg" xmlns:xlink="http://www.w3.org/1999/xlink" x="0px" y="0px"
	 width="62.549px" height="74.706px" viewBox="0 10.988 62.549 74.706" enable-background="new 0 10.988 62.549 74.706"
	 xml:space="preserve">
<path d="M0,48.291c0,4.069,0.626,8.008,1.88,11.816c1.253,3.808,3.036,7.242,5.347,10.303s4.997,5.746,8.057,8.057
	s6.494,4.094,10.303,5.348s7.748,1.881,11.816,1.879c16.764-4.654,25.146-17.121,25.146-37.401c0-3.938-0.464-7.682-1.392-11.23
	c-0.929-3.548-2.182-6.689-3.761-9.424c-1.578-2.735-3.449-5.225-5.614-7.471s-4.452-4.118-6.86-5.615
	c-2.409-1.498-4.915-2.686-7.52-3.564c-5.078,0-9.928,0.985-14.551,2.954s-8.602,4.623-11.938,7.959
	c-3.336,3.337-5.989,7.308-7.959,11.914C0.984,38.421,0,43.247,0,48.293V48.291z"/>
</svg>
