<?xml version="1.0" encoding="utf-8"?>
<!-- Generator: Adobe Illustrator 15.0.0, SVG Export Plug-In . SVG Version: 6.00 Build 0)  -->
<!DOCTYPE svg PUBLIC "-//W3C//DTD SVG 1.1//EN" "http://www.w3.org/Graphics/SVG/1.1/DTD/svg11.dtd">
<svg version="1.1" id="Layer_1" xmlns="http://www.w3.org/2000/svg" xmlns:xlink="http://www.w3.org/1999/xlink" x="0px" y="0px"
	 width="75.048px" height="75.047px" viewBox="0 10.646 75.048 75.047" enable-background="new 0 10.646 75.048 75.047"
	 xml:space="preserve">
<path d="M0,48.145c0,6.803,1.676,13.085,5.029,18.848c3.353,5.762,7.91,10.319,13.672,13.672c5.762,3.353,12.044,5.028,18.848,5.028
	c6.804,0,13.078-1.676,18.823-5.028s10.294-7.91,13.647-13.672c3.352-5.763,5.028-12.045,5.028-18.848s-1.677-13.078-5.028-18.823
	c-3.354-5.745-7.902-10.294-13.647-13.647c-5.745-3.353-12.02-5.029-18.823-5.029c-6.803,0-13.086,1.676-18.848,5.029
	c-5.762,3.353-10.319,7.902-13.672,13.647C1.676,35.067,0,41.342,0,48.145z"/>
</svg>
