<?xml version="1.0" encoding="utf-8"?>
<!-- Generator: Adobe Illustrator 15.0.0, SVG Export Plug-In . SVG Version: 6.00 Build 0)  -->
<!DOCTYPE svg PUBLIC "-//W3C//DTD SVG 1.1//EN" "http://www.w3.org/Graphics/SVG/1.1/DTD/svg11.dtd">
<svg version="1.1" id="Layer_1" xmlns="http://www.w3.org/2000/svg" xmlns:xlink="http://www.w3.org/1999/xlink" x="0px" y="0px"
	 width="75.146px" height="75.146px" viewBox="0 10.547 75.146 75.146" enable-background="new 0 10.547 75.146 75.146"
	 xml:space="preserve">
<path d="M0,48.145c0-5.111,0.993-9.985,2.979-14.624s4.655-8.634,8.008-11.987c3.353-3.353,7.349-6.022,11.987-8.008
	c4.639-1.986,9.497-2.979,14.575-2.979c5.111,0,9.985,0.993,14.624,2.979c4.639,1.986,8.634,4.655,11.987,8.008
	c3.353,3.353,6.021,7.348,8.008,11.987s2.979,9.513,2.979,14.624c0,5.078-0.992,9.937-2.979,14.576s-4.655,8.634-8.008,11.986
	c-3.354,3.353-7.349,6.021-11.987,8.008s-9.513,2.979-14.624,2.979c-5.078,0-9.936-0.992-14.575-2.979s-8.634-4.655-11.987-8.008
	c-3.353-3.353-6.022-7.348-8.008-11.986S0,53.223,0,48.145z M4.004,48.145c0,4.525,0.887,8.863,2.661,13.013
	s4.158,7.723,7.153,10.718s6.567,5.379,10.718,7.153c4.15,1.773,8.488,2.66,13.013,2.66c4.558,0,8.903-0.887,13.037-2.66
	c4.135-1.774,7.707-4.158,10.719-7.153c3.011-2.995,5.403-6.567,7.178-10.718c1.773-4.15,2.66-8.488,2.66-13.013
	c0-6.055-1.506-11.662-4.517-16.821c-3.011-5.16-7.097-9.245-12.256-12.256c-5.16-3.011-10.767-4.517-16.821-4.517
	c-4.524,0-8.862,0.887-13.013,2.661c-4.151,1.774-7.724,4.167-10.718,7.178c-2.995,3.011-5.379,6.584-7.153,10.718
	C4.891,39.242,4.004,43.587,4.004,48.145z"/>
</svg>
