<?xml version="1.0" encoding="utf-8"?>
<!-- Generator: Adobe Illustrator 15.0.0, SVG Export Plug-In . SVG Version: 6.00 Build 0)  -->
<!DOCTYPE svg PUBLIC "-//W3C//DTD SVG 1.1//EN" "http://www.w3.org/Graphics/SVG/1.1/DTD/svg11.dtd">
<svg version="1.1" id="Layer_1" xmlns="http://www.w3.org/2000/svg" xmlns:xlink="http://www.w3.org/1999/xlink" x="0px" y="0px"
	 width="44.678px" height="74.95px" viewBox="-0.001 10.741 44.678 74.95" enable-background="new -0.001 10.741 44.678 74.95"
	 xml:space="preserve">
<path d="M0,48.193c0,6.803,1.676,13.078,5.029,18.823c3.353,5.746,7.902,10.295,13.647,13.647c5.746,3.353,12.02,5.028,18.823,5.028
	c4.785-10.254,7.178-22.754,7.178-37.5c0-11.523-2.393-24.007-7.178-37.451c-5.078,0-9.937,0.984-14.575,2.954
	c-4.639,1.97-8.626,4.63-11.963,7.983c-3.336,3.353-5.998,7.34-7.983,11.963S0,43.114,0,48.193L0,48.193z"/>
</svg>
