<?xml version="1.0" encoding="utf-8"?>
<!-- Generator: Adobe Illustrator 15.0.0, SVG Export Plug-In . SVG Version: 6.00 Build 0)  -->
<!DOCTYPE svg PUBLIC "-//W3C//DTD SVG 1.1//EN" "http://www.w3.org/Graphics/SVG/1.1/DTD/svg11.dtd">
<svg version="1.1" id="Layer_1" xmlns="http://www.w3.org/2000/svg" xmlns:xlink="http://www.w3.org/1999/xlink" x="0px" y="0px"
	 width="55.469px" height="75.147px" viewBox="19.677 10.546 55.469 75.147" enable-background="new 19.677 10.546 55.469 75.147"
	 xml:space="preserve">
<path d="M19.678,48.096c0,4.134,0.276,7.926,0.83,11.376c0.554,3.451,1.481,6.828,2.783,10.133c1.302,3.304,3.157,6.314,5.566,9.033
	c2.409,2.717,5.322,5.069,8.74,7.055c5.078,0,9.936-0.992,14.575-2.979s8.635-4.655,11.987-8.008s6.022-7.348,8.008-11.986
	s2.979-9.514,2.979-14.625s-0.994-9.978-2.979-14.6s-4.655-8.61-8.008-11.963c-3.353-3.353-7.349-6.022-11.987-8.008
	c-4.639-1.986-9.497-2.979-14.575-2.979c-5.567,3.809-9.945,9.074-13.135,15.796C21.272,33.064,19.677,40.315,19.678,48.096
	L19.678,48.096z"/>
</svg>
