<?xml version="1.0" encoding="utf-8"?>
<!-- Generator: Adobe Illustrator 15.0.0, SVG Export Plug-In . SVG Version: 6.00 Build 0)  -->
<!DOCTYPE svg PUBLIC "-//W3C//DTD SVG 1.1//EN" "http://www.w3.org/Graphics/SVG/1.1/DTD/svg11.dtd">
<svg version="1.1" id="Layer_1" xmlns="http://www.w3.org/2000/svg" xmlns:xlink="http://www.w3.org/1999/xlink" x="0px" y="0px"
	 width="37.499px" height="75.048px" viewBox="37.549 10.645 37.499 75.048" enable-background="new 37.549 10.645 37.499 75.048"
	 xml:space="preserve">
<path d="M37.549,85.693c6.804,0,13.078-1.677,18.823-5.029s10.294-7.91,13.647-13.672c3.352-5.762,5.028-12.045,5.028-18.848
	s-1.677-13.078-5.028-18.823c-3.354-5.745-7.902-10.294-13.647-13.647c-5.745-3.353-12.02-5.029-18.823-5.029
	c5.697,4.199,9.896,9.66,12.598,16.382C52.85,33.749,54.2,40.789,54.2,48.145c0,2.995-0.114,5.769-0.343,8.326
	c-0.228,2.555-0.707,5.297-1.439,8.227c-0.732,2.931-1.684,5.592-2.856,7.984c-1.172,2.391-2.783,4.743-4.834,7.055
	C42.677,82.049,40.285,84.035,37.549,85.693L37.549,85.693z"/>
</svg>
