<?xml version="1.0" encoding="utf-8"?>
<!-- Generator: Adobe Illustrator 15.0.0, SVG Export Plug-In . SVG Version: 6.00 Build 0)  -->
<!DOCTYPE svg PUBLIC "-//W3C//DTD SVG 1.1//EN" "http://www.w3.org/Graphics/SVG/1.1/DTD/svg11.dtd">
<svg version="1.1" id="Layer_1" xmlns="http://www.w3.org/2000/svg" xmlns:xlink="http://www.w3.org/1999/xlink" x="0px" y="0px"
	 width="37.499px" height="75.048px" viewBox="37.549 10.645 37.499 75.048" enable-background="new 37.549 10.645 37.499 75.048"
	 xml:space="preserve">
<path d="M37.549,85.693c6.804,0,13.078-1.677,18.823-5.029s10.294-7.91,13.647-13.672c3.352-5.762,5.028-12.045,5.028-18.848
	s-1.677-13.078-5.028-18.823c-3.354-5.745-7.902-10.294-13.647-13.647c-5.745-3.353-12.02-5.029-18.823-5.029
	c4.297,4.623,7.455,10.229,9.473,16.821s3.028,13.484,3.027,20.679c0,2.93-0.089,5.64-0.269,8.13
	c-0.179,2.49-0.537,5.167-1.074,8.031c-0.537,2.865-1.253,5.494-2.148,7.887c-0.896,2.393-2.108,4.777-3.638,7.152
	C41.39,81.723,39.6,83.838,37.549,85.693L37.549,85.693z"/>
</svg>
