<?xml version="1.0" encoding="utf-8"?>
<!-- Generator: Adobe Illustrator 15.0.0, SVG Export Plug-In . SVG Version: 6.00 Build 0)  -->
<!DOCTYPE svg PUBLIC "-//W3C//DTD SVG 1.1//EN" "http://www.w3.org/Graphics/SVG/1.1/DTD/svg11.dtd">
<svg version="1.1" id="Layer_1" xmlns="http://www.w3.org/2000/svg" xmlns:xlink="http://www.w3.org/1999/xlink" x="0px" y="0px"
	 width="113.136px" height="85.89px" viewBox="-0.001 -0.197 113.136 85.89" enable-background="new -0.001 -0.197 113.136 85.89"
	 xml:space="preserve">
<path d="M0,59.912c0-6.021,1.847-11.361,5.542-16.016s8.456-7.634,14.282-8.936c1.205-5.371,3.638-10.067,7.3-14.087
	s8.048-6.893,13.159-8.618c3.223-1.106,6.576-1.66,10.059-1.66c4.232,0,8.317,0.83,12.256,2.49c1.465-2.441,3.182-4.557,5.151-6.348
	c1.97-1.791,4.004-3.166,6.104-4.126c2.1-0.96,4.143-1.668,6.127-2.124c1.986-0.456,3.939-0.684,5.859-0.684
	c1.986,0,4.118,0.276,6.396,0.83l4.248,1.318c0.716,0.292,0.959,0.683,0.731,1.172l-0.731,3.125
	c-0.358,1.627-0.537,3.125-0.537,4.492c0,1.627,0.252,3.271,0.757,4.932s1.262,3.289,2.271,4.883c1.01,1.595,2.393,3.043,4.15,4.346
	s3.76,2.296,6.006,2.979l3.223,1.123c0.521,0.13,0.781,0.407,0.781,0.83c0,0.097-0.032,0.211-0.098,0.342l-0.928,3.516
	c-1.433,5.599-4.037,10.059-7.813,13.379c2.083,3.646,3.206,7.536,3.369,11.67c0.032,0.26,0.049,0.65,0.049,1.172
	c0,4.654-1.155,8.959-3.467,12.915c-2.312,3.955-5.444,7.089-9.399,9.399s-8.26,3.466-12.914,3.467h-56.3
	c-4.654,0-8.952-1.156-12.891-3.467c-3.939-2.313-7.048-5.445-9.326-9.399S0,64.567,0,59.912L0,59.912z M8.887,59.912
	c0,4.623,1.66,8.627,4.98,12.012c3.32,3.385,7.243,5.078,11.768,5.078h56.299c4.623,0,8.586-1.676,11.891-5.029
	c3.304-3.353,4.955-7.373,4.955-12.061c0-4.558-1.659-8.488-4.979-11.792c-3.319-3.304-7.274-4.956-11.864-4.956h-9.277
	l-0.537-3.906c-0.521-5.273-2.701-9.773-6.543-13.501c-3.842-3.727-8.415-5.802-13.721-6.226c-0.163,0-0.415-0.016-0.757-0.049
	c-0.342-0.033-0.594-0.049-0.757-0.049c-2.636,0-5.306,0.504-8.008,1.514v-0.098c-3.809,1.464-7.007,3.841-9.595,7.129
	c-2.588,3.288-4.142,7.048-4.663,11.279l-0.342,3.76l-3.564,0.146c-4.395,0.521-8.041,2.36-10.938,5.518
	C10.335,51.839,8.887,55.582,8.887,59.912L8.887,59.912z M70.068,17.676c5.533,4.72,8.951,10.238,10.254,16.553h1.66
	c6.478,0,11.979,2.051,16.504,6.152c1.725-1.627,3.043-3.482,3.955-5.566c-4.753-2.246-8.496-5.664-11.23-10.254
	s-4.102-9.424-4.102-14.502v-1.27c-0.262-0.033-0.685-0.049-1.271-0.049c-3.027-0.065-5.974,0.692-8.838,2.271
	c-2.864,1.579-5.176,3.801-6.935,6.665H70.068z"/>
</svg>
