<?xml version="1.0" encoding="utf-8"?>
<!-- Generator: Adobe Illustrator 15.0.0, SVG Export Plug-In . SVG Version: 6.00 Build 0)  -->
<!DOCTYPE svg PUBLIC "-//W3C//DTD SVG 1.1//EN" "http://www.w3.org/Graphics/SVG/1.1/DTD/svg11.dtd">
<svg version="1.1" id="Layer_1" xmlns="http://www.w3.org/2000/svg" xmlns:xlink="http://www.w3.org/1999/xlink" x="0px" y="0px"
	 width="85.987px" height="82.127px" viewBox="-0.003 10.693 85.987 82.127" enable-background="new -0.003 10.693 85.987 82.127"
	 xml:space="preserve">
<path d="M0,74.219c0-4.102,1.18-7.73,3.54-10.889s5.509-5.355,9.448-6.592c1.66-5.664,5.111-9.994,10.352-12.988v-1.807
	c0-7.584,2.401-14.266,7.202-20.044c4.801-5.778,10.88-9.351,18.237-10.718c1.855-0.326,3.727-0.488,5.615-0.488h0.146
	c1.073,0,2.294,0.082,3.662,0.244c1.335,0.097,2.604,0.292,3.81,0.586l4.735,1.465c0.683,0.358,0.96,0.814,0.83,1.367l-0.685,3.662
	c-0.391,1.66-0.586,3.336-0.586,5.029c0,1.823,0.285,3.687,0.854,5.591c0.569,1.904,1.432,3.776,2.588,5.615
	c1.155,1.839,2.735,3.515,4.735,5.029c2.002,1.514,4.305,2.662,6.91,3.442l3.711,1.074c0.586,0.13,0.879,0.439,0.879,0.928
	c0,0.195-0.017,0.326-0.049,0.391l-0.929,3.564c-0.292,1.269-0.667,2.539-1.123,3.808c-0.781,2.279-2.002,4.656-3.661,7.13
	c0-0.032-0.018-0.05-0.05-0.05c-2.278,3.289-5.127,6.023-8.545,8.203c0.716,1.758,1.074,3.906,1.074,6.445
	c0,5.144-1.799,9.529-5.396,13.159c-3.598,3.63-7.92,5.444-12.965,5.444H18.649c-5.045,0-9.415-1.84-13.11-5.518
	c-3.695-3.68-5.542-8.041-5.542-13.087L0,74.219z M10.303,74.219c0,2.344,0.806,4.338,2.417,5.981s3.589,2.466,5.933,2.466h35.693
	c2.246,0,4.191-0.83,5.836-2.49c1.644-1.66,2.465-3.646,2.465-5.957c0-2.246-0.821-4.191-2.465-5.835
	c-1.645-1.644-3.59-2.466-5.836-2.466H47.51c-0.553,0-0.992-0.391-1.318-1.172l-0.438-3.32c-0.358-2.994-1.651-5.501-3.882-7.52
	c-2.23-2.02-4.859-3.027-7.886-3.027c-2.962,0-5.525,1.01-7.69,3.027s-3.426,4.524-3.784,7.52l-0.537,2.881
	c0,0.781-0.326,1.172-0.977,1.172l-3.271,0.439c-2.149,0.195-3.923,1.082-5.322,2.661C11.005,70.158,10.305,72.037,10.303,74.219
	L10.303,74.219z M33.35,40.869h0.635c4.818,0,9.14,1.359,12.964,4.077c3.824,2.718,6.502,6.356,8.031,10.914
	c4.037,0,7.569,1.253,10.597,3.76c3.613-2.246,6.267-5.289,7.959-9.131c-5.403-2.734-9.627-6.641-12.671-11.719
	c-3.045-5.078-4.566-10.482-4.565-16.211V20.8c-0.163,0-0.374-0.008-0.635-0.024c-0.261-0.016-0.472-0.024-0.636-0.024
	c-3.189,0-6.266,0.684-9.229,2.051c-2.962,1.367-5.469,3.32-7.52,5.859l-0.146-0.098C35.303,32.08,33.708,36.181,33.35,40.869z"/>
</svg>
