<?xml version="1.0" encoding="UTF-8" standalone="no"?>
<!-- Created with Inkscape (http://www.inkscape.org/) -->

<svg
   xmlns:dc="http://purl.org/dc/elements/1.1/"
   xmlns:cc="http://creativecommons.org/ns#"
   xmlns:rdf="http://www.w3.org/1999/02/22-rdf-syntax-ns#"
   xmlns:svg="http://www.w3.org/2000/svg"
   xmlns="http://www.w3.org/2000/svg"
   xmlns:sodipodi="http://sodipodi.sourceforge.net/DTD/sodipodi-0.dtd"
   xmlns:inkscape="http://www.inkscape.org/namespaces/inkscape"
   width="29.93284mm"
   height="22.725327mm"
   viewBox="0 0 29.932842 22.725324"
   version="1.1"
   id="svg32"
   inkscape:version="0.92.1 r15371"
   sodipodi:docname="night-mostly-cloudy.svg">
  <defs
     id="defs26" />
  <sodipodi:namedview
     id="base"
     pagecolor="#ffffff"
     bordercolor="#666666"
     borderopacity="1.0"
     inkscape:pageopacity="0.0"
     inkscape:pageshadow="2"
     inkscape:zoom="7.9195959"
     inkscape:cx="43.700589"
     inkscape:cy="41.600972"
     inkscape:document-units="mm"
     inkscape:current-layer="layer1"
     showgrid="false"
     inkscape:window-width="1920"
     inkscape:window-height="1017"
     inkscape:window-x="-8"
     inkscape:window-y="-8"
     inkscape:window-maximized="1" />
  <metadata
     id="metadata29">
    <rdf:RDF>
      <cc:Work
         rdf:about="">
        <dc:format>image/svg+xml</dc:format>
        <dc:type
           rdf:resource="http://purl.org/dc/dcmitype/StillImage" />
        <dc:title />
      </cc:Work>
    </rdf:RDF>
  </metadata>
  <g
     inkscape:label="Layer 1"
     inkscape:groupmode="layer"
     id="layer1"
     transform="translate(9.5456073,-173.90035)">
    <g
       aria-label="ï"
       style="font-style:normal;font-variant:normal;font-weight:normal;font-stretch:normal;font-size:26.45806885px;line-height:1.25;font-family:'Weather Icons';-inkscape-font-specification:'Weather Icons';letter-spacing:0px;word-spacing:0px;fill:#dddddd;fill-opacity:1;stroke:none;stroke-width:0.6614517"
       id="text5789">
      <path
         d="m -9.6124249,189.84545 q 0,-2.3771 1.4856826,-4.23743 1.4856826,-1.86033 3.7723419,-2.39001 0.6459489,-2.82926 2.9067702,-4.63791 2.26082135,-1.82158 5.1805106,-1.82158 2.8550943,0 5.0771587,1.7699 2.2349829,1.7699 2.9067699,4.53456 h 0.452165 q 1.860333,0 3.436448,0.90433 1.576115,0.89141 2.493363,2.45461 0.917247,1.56319 0.917247,3.42353 0,1.82157 -0.87849,3.37185 -0.865572,1.55028 -2.390011,2.49336 -1.511521,0.93017 -3.320178,0.98184 H -2.9979076 q -2.7646615,-0.12918 -4.6895894,-2.10579 -1.9249279,-1.9766 -1.9249279,-4.74126 z m 2.3512542,0 q 0,1.79573 1.240222,3.12639 1.2531409,1.31773 3.0230411,1.40817 H 12.427353 q 1.7699,-0.0904 3.023041,-1.40817 1.253141,-1.33066 1.253141,-3.12639 0,-1.80866 -1.343574,-3.1264 -1.343573,-1.33065 -3.190987,-1.33065 H 9.9339903 q -0.2325417,0 -0.2325417,-0.24546 l -0.1033518,-0.78806 q -0.2325416,-2.23498 -1.9249278,-3.7465 -1.6923863,-1.51152 -3.9402886,-1.51152 -2.2608213,0 -3.94028859,1.51152 -1.66654831,1.51152 -1.88617091,3.7465 l -0.1033518,0.78806 q 0,0.24546 -0.2712986,0.24546 h -0.7234628 q -1.7311432,0.2067 -2.9067703,1.47276 -1.1627081,1.26606 -1.1627081,2.98429 z"
         style="stroke-width:0.6614517;fill:#dddddd;fill-opacity:1"
         id="path5795" />
    </g>
    <path
       inkscape:connector-curvature="0"
       style="font-style:normal;font-variant:normal;font-weight:normal;font-stretch:normal;font-size:medium;line-height:1.25;font-family:'Weather Icons';-inkscape-font-specification:'Weather Icons';letter-spacing:0px;word-spacing:0px;fill:#ffffff;fill-opacity:1;stroke:none;stroke-width:0.48449033"
       d="m 13.253003,173.78487 c -0.965195,0 -1.892765,0.19241 -2.782259,0.57723 -0.8831857,0.37851 -1.6463189,0.88926 -2.2897827,1.53272 -0.4515826,0.45158 -0.8369278,0.96634 -1.1585855,1.54151 0.5460238,0.24265 1.0684857,0.5509 1.5678629,0.92397 0.4351263,-0.82428 1.0464263,-1.50447 1.8334793,-2.03967 0.794868,-0.53622 1.66845,-0.82906 2.621029,-0.87953 0.151403,1.44464 0.722128,2.70304 1.712557,3.77548 0.996738,1.06613 2.318622,1.7693 3.965131,2.10995 -0.107243,0.76333 -0.347135,1.467 -0.719335,2.11046 -0.324797,0.5712 -0.710152,1.04747 -1.149283,1.43971 0.446383,0.41054 0.833952,0.88132 1.161686,1.41283 0.554488,-0.49873 1.024456,-1.07974 1.40715,-1.74563 0.63718,-1.10398 0.952529,-2.3024 0.946195,-3.59564 v -0.98444 c 0,-0.15771 -0.08196,-0.23616 -0.245981,-0.23616 l -0.832506,-0.0667 c -1.261695,-0.0505 -2.334188,-0.52675 -3.217375,-1.42886 -0.883183,-0.90211 -1.343975,-1.99308 -1.381828,-3.2737 l -0.04703,-0.88987 c 0,-0.14512 -0.07897,-0.23957 -0.236678,-0.2837 z"
       id="path6415" />
  </g>
</svg>
