<?xml version="1.0" encoding="UTF-8" standalone="no"?>
<!-- Created with Inkscape (http://www.inkscape.org/) -->

<svg
   xmlns:dc="http://purl.org/dc/elements/1.1/"
   xmlns:cc="http://creativecommons.org/ns#"
   xmlns:rdf="http://www.w3.org/1999/02/22-rdf-syntax-ns#"
   xmlns:svg="http://www.w3.org/2000/svg"
   xmlns="http://www.w3.org/2000/svg"
   xmlns:sodipodi="http://sodipodi.sourceforge.net/DTD/sodipodi-0.dtd"
   xmlns:inkscape="http://www.inkscape.org/namespaces/inkscape"
   width="28.563887mm"
   height="27.633877mm"
   viewBox="0 0 28.563889 27.633873"
   version="1.1"
   id="svg32"
   inkscape:version="0.92.1 r15371"
   sodipodi:docname="rain.svg">
  <defs
     id="defs26" />
  <sodipodi:namedview
     id="base"
     pagecolor="#ffffff"
     bordercolor="#666666"
     borderopacity="1.0"
     inkscape:pageopacity="0.0"
     inkscape:pageshadow="2"
     inkscape:zoom="5.6"
     inkscape:cx="57.331325"
     inkscape:cy="45.232345"
     inkscape:document-units="mm"
     inkscape:current-layer="layer1"
     showgrid="false"
     inkscape:window-width="1920"
     inkscape:window-height="1017"
     inkscape:window-x="-8"
     inkscape:window-y="-8"
     inkscape:window-maximized="1" />
  <metadata
     id="metadata29">
    <rdf:RDF>
      <cc:Work
         rdf:about="">
        <dc:format>image/svg+xml</dc:format>
        <dc:type
           rdf:resource="http://purl.org/dc/dcmitype/StillImage" />
        <dc:title />
      </cc:Work>
    </rdf:RDF>
  </metadata>
  <g
     inkscape:label="Layer 1"
     inkscape:groupmode="layer"
     id="layer1"
     transform="translate(8.7443167,-203.50056)">
    <path
       style="fill:#dddddd;stroke-width:0.26458332;fill-opacity:1"
       d="m -8.7443167,216.54849 c 0,-1.58432 0.4953,-2.99482 1.4856354,-4.23069 0.9906,-1.23613 2.2436666,-2.03094 3.7594645,-2.38389 0.4304771,-1.87775 1.3993813,-3.41921 2.9067125,-4.62465 1.50733123,-1.20598 3.2297687,-1.80843 5.167577,-1.8087 1.8949458,0 3.5851041,0.58791 5.0710041,1.76345 1.4856352,1.17528 2.4526872,2.68473 2.9000982,4.52782 h 0.439208 c 1.2319,0 2.373048,0.2995 3.423179,0.89826 1.051454,0.59875 1.881981,1.41658 2.493698,2.45454 0.611981,1.03769 0.91731,2.17223 0.91731,3.40386 0,1.20624 -0.290777,2.32754 -0.871802,3.36603 -0.581289,1.0377 -1.376098,1.86664 -2.38416,2.48629 -1.008063,0.61965 -2.110052,0.94721 -3.307292,0.98187 -0.18071,0 -0.270933,-0.0775 -0.270933,-0.23257 v -1.83462 c 0,-0.16378 0.09075,-0.24606 0.270933,-0.24606 1.17184,-0.0603 2.173023,-0.5297 3.004079,-1.40759 0.831321,-0.87841 1.246453,-1.91637 1.246453,-3.11414 0,-1.19724 -0.447411,-2.23732 -1.343025,-3.11997 -0.896144,-0.88265 -1.955536,-1.32397 -3.178705,-1.32424 h -2.221706 c -0.163777,0 -0.245798,-0.0775 -0.245798,-0.23257 l -0.103452,-0.80089 c -0.155046,-1.48987 -0.7948081,-2.73659 -1.9187581,-3.74015 -1.12395,-1.00357 -2.4309916,-1.50495 -3.9208604,-1.50495 -1.5070666,0 -2.8183416,0.50165 -3.9338249,1.50495 -1.11548332,1.0033 -1.7417521,2.25002 -1.8796,3.74015 l -0.1034521,0.73633 c 0,0.17225 -0.090487,0.25877 -0.2711979,0.25877 l -0.7233708,0.0386 c -1.1456458,0.13784 -2.1079354,0.62865 -2.8873979,1.47267 -0.7794625,0.84375 -1.1691937,1.83435 -1.1691937,2.971 0,1.19724 0.4135437,2.23494 1.2403666,3.11388 0.8268229,0.87842 1.8301229,1.34832 3.0101646,1.40785 0.1550458,0 0.2325687,0.0823 0.2325687,0.2458 v 1.83489 c 0,0.15504 -0.077523,0.23256 -0.2325687,0.23256 -1.8430875,-0.086 -3.4041291,-0.78819 -4.683125,-2.10581 -1.2784666,-1.31789 -1.9179645,-2.89375 -1.9182291,-4.72811 z"
       id="path840" />
    <path
       id="path466"
       style="fill:#00aff0;stroke-width:0.26458332;fill-opacity:1"
       d="m 7.9344873,225.79859 c 0,-0.0513 0.016669,-0.15505 0.051329,-0.31009 l 2.2478997,-7.94491 c 0.07726,-0.26749 0.217223,-0.46911 0.41963,-0.60748 0.202935,-0.13785 0.415925,-0.20638 0.639762,-0.20638 0.111919,0 0.232569,0.013 0.361685,0.0386 0.283898,0.0775 0.497153,0.2196 0.639234,0.42624 0.142081,0.20664 0.213519,0.42201 0.213519,0.64585 0,0.0426 -0.0085,0.10504 -0.02593,0.1868 -0.0172,0.0823 -0.02619,0.13599 -0.02619,0.16139 l -2.2479,7.89385 c -0.05133,0.26696 -0.180975,0.48022 -0.387615,0.63949 -0.2066396,0.15955 -0.4392084,0.23866 -0.6979709,0.23866 l -0.3362854,-0.0646 c -0.2754312,-0.0773 -0.4868333,-0.22595 -0.6331479,-0.44556 -0.1465791,-0.22013 -0.2196041,-0.43735 -0.2196041,-0.65299 z m -5.6845729,3.83699 3.3588854,-12.09199 c 0.060325,-0.26749 0.1981729,-0.46911 0.4135437,-0.60748 0.2153709,-0.13785 0.4392084,-0.20638 0.6717771,-0.20638 0.1209146,0 0.2455333,0.013 0.37465,0.0386 0.301625,0.086 0.5254625,0.26458 0.6717771,0.53578 0.1465791,0.27093 0.1767416,0.56647 0.090488,0.8853 l -3.3459208,12.10521 c -0.051594,0.23257 -0.1852083,0.43048 -0.4005792,0.59426 -0.2153708,0.16377 -0.4479396,0.24553 -0.6977062,0.24553 -0.1291167,0 -0.2452688,-0.0214 -0.3487208,-0.0643 -0.2756959,-0.0691 -0.5127625,-0.2495 -0.7106709,-0.54293 -0.1550458,-0.2413 -0.180975,-0.53842 -0.077523,-0.89164 z m -3.6173833,-3.87588 c 0,-0.0606 0.017198,-0.15082 0.051594,-0.2712 l 2.24789994,-7.94491 c 0.0862542,-0.26749 0.23468546,-0.46911 0.44582296,-0.60748 0.2111375,-0.13785 0.4243916,-0.20638 0.6394979,-0.20638 0.094721,0 0.2069041,0.013 0.3360208,0.0386 0.3272896,0.0606 0.5749396,0.22834 0.74295,0.50377 0.1680104,0.27543 0.2047875,0.58129 0.1098021,0.91731 l -2.24790001,7.89358 c -0.17224374,0.58552 -0.55112707,0.87841 -1.13691456,0.87841 -0.0515938,0 -0.10345209,-0.009 -0.15504584,-0.0259 -0.0775229,-0.0262 -0.12488333,-0.0386 -0.14208124,-0.0386 -0.30136042,-0.0863 -0.52546245,-0.23891 -0.67177705,-0.45852 -0.1463146,-0.21987 -0.2196042,-0.44609 -0.2198688,-0.67865 z" />
  </g>
</svg>
