<?xml version="1.0" encoding="utf-8"?>
<!-- Generator: Adobe Illustrator 15.0.0, SVG Export Plug-In . SVG Version: 6.00 Build 0)  -->
<!DOCTYPE svg PUBLIC "-//W3C//DTD SVG 1.1//EN" "http://www.w3.org/Graphics/SVG/1.1/DTD/svg11.dtd">
<svg version="1.1" id="Layer_1" xmlns="http://www.w3.org/2000/svg" xmlns:xlink="http://www.w3.org/1999/xlink" x="0px" y="0px"
	 width="107.958px" height="104.443px" viewBox="0 10.645 107.958 104.443" enable-background="new 0 10.645 107.958 104.443"
	 xml:space="preserve">
<path d="M0,59.961c0-5.989,1.872-11.32,5.615-15.991c3.744-4.671,8.48-7.675,14.209-9.009c1.627-7.097,5.289-12.923,10.986-17.48
	s12.207-6.835,19.531-6.836c7.161,0,13.55,2.222,19.165,6.665s9.27,10.148,10.962,17.114h1.66c4.655,0,8.968,1.131,12.938,3.394
	c3.973,2.263,7.113,5.355,9.425,9.277s3.467,8.21,3.467,12.866c0,4.558-1.099,8.797-3.296,12.721
	c-2.197,3.922-5.201,7.055-9.01,9.398s-7.975,3.58-12.5,3.711c-0.683,0-1.024-0.293-1.024-0.879v-6.934
	c0-0.619,0.342-0.929,1.024-0.929c4.428-0.228,8.213-2.002,11.354-5.321c3.142-3.32,4.712-7.243,4.712-11.769
	s-1.692-8.456-5.077-11.792c-3.386-3.336-7.391-5.004-12.013-5.005H73.73c-0.619,0-0.929-0.293-0.929-0.879l-0.391-3.027
	c-0.586-5.631-3.003-10.343-7.251-14.136c-4.248-3.793-9.188-5.689-14.819-5.688c-5.696,0-10.652,1.896-14.868,5.688
	s-6.583,8.504-7.104,14.136l-0.391,2.783c0,0.651-0.342,0.977-1.025,0.977l-2.734,0.146c-4.33,0.521-7.967,2.376-10.913,5.566
	c-2.946,3.19-4.419,6.933-4.419,11.23c0,4.525,1.563,8.447,4.688,11.768c3.125,3.321,6.917,5.096,11.377,5.322
	c0.586,0,0.879,0.31,0.879,0.928v6.935c0,0.586-0.293,0.879-0.879,0.879c-6.966-0.325-12.866-2.979-17.7-7.959
	C2.418,72.85,0.001,66.894,0,59.961L0,59.961z M27.881,94.775c0-0.229,0.065-0.57,0.195-1.025l8.496-30.029
	c0.326-1.01,0.887-1.773,1.685-2.295c0.798-0.521,1.604-0.781,2.417-0.781c0.358,0,0.782,0.049,1.27,0.146
	c1.237,0.229,2.173,0.863,2.808,1.904s0.774,2.197,0.415,3.467l-8.496,29.834c-0.651,2.213-2.083,3.32-4.297,3.32
	c-0.195,0-0.391-0.033-0.586-0.098c-0.293-0.098-0.472-0.146-0.537-0.146c-1.139-0.326-1.986-0.903-2.539-1.733
	S27.882,95.654,27.881,94.775L27.881,94.775z M41.553,109.424l12.695-45.703c0.228-1.01,0.749-1.773,1.563-2.295
	c0.814-0.521,1.66-0.781,2.539-0.781c0.457,0,0.928,0.049,1.416,0.146c1.14,0.325,1.986,1,2.539,2.025
	c0.554,1.025,0.668,2.141,0.342,3.346l-12.646,45.752c-0.195,0.879-0.7,1.627-1.514,2.246s-1.693,0.928-2.637,0.928
	c-0.488,0-0.927-0.081-1.318-0.244c-1.042-0.26-1.938-0.943-2.686-2.051C41.26,111.882,41.162,110.759,41.553,109.424z
	 M63.037,94.922c0-0.195,0.064-0.586,0.195-1.172l8.496-30.029c0.292-1.01,0.821-1.773,1.586-2.295
	c0.766-0.521,1.572-0.781,2.418-0.781c0.423,0,0.879,0.049,1.367,0.146c1.073,0.293,1.879,0.83,2.416,1.611s0.807,1.595,0.807,2.441
	c0,0.162-0.033,0.398-0.098,0.707c-0.066,0.31-0.099,0.513-0.099,0.61L71.63,95.995c-0.195,1.009-0.684,1.815-1.465,2.417
	s-1.66,0.902-2.638,0.902l-1.27-0.244c-1.042-0.292-1.84-0.854-2.393-1.684c-0.554-0.832-0.83-1.653-0.83-2.467L63.037,94.922z"/>
</svg>
