<?xml version="1.0" encoding="UTF-8" standalone="no"?>
<!-- Created with Inkscape (http://www.inkscape.org/) -->

<svg
   xmlns:dc="http://purl.org/dc/elements/1.1/"
   xmlns:cc="http://creativecommons.org/ns#"
   xmlns:rdf="http://www.w3.org/1999/02/22-rdf-syntax-ns#"
   xmlns:svg="http://www.w3.org/2000/svg"
   xmlns="http://www.w3.org/2000/svg"
   xmlns:sodipodi="http://sodipodi.sourceforge.net/DTD/sodipodi-0.dtd"
   xmlns:inkscape="http://www.inkscape.org/namespaces/inkscape"
   width="28.539017mm"
   height="28.254324mm"
   viewBox="0 0 28.539019 28.25432"
   version="1.1"
   id="svg32"
   inkscape:version="0.92.1 r15371"
   sodipodi:docname="sleet.svg">
  <defs
     id="defs26" />
  <sodipodi:namedview
     id="base"
     pagecolor="#ffffff"
     bordercolor="#666666"
     borderopacity="1.0"
     inkscape:pageopacity="0.0"
     inkscape:pageshadow="2"
     inkscape:zoom="7.9195959"
     inkscape:cx="44.082738"
     inkscape:cy="52.829397"
     inkscape:document-units="mm"
     inkscape:current-layer="layer1"
     showgrid="false"
     inkscape:window-width="1920"
     inkscape:window-height="1017"
     inkscape:window-x="-8"
     inkscape:window-y="-8"
     inkscape:window-maximized="1" />
  <metadata
     id="metadata29">
    <rdf:RDF>
      <cc:Work
         rdf:about="">
        <dc:format>image/svg+xml</dc:format>
        <dc:type
           rdf:resource="http://purl.org/dc/dcmitype/StillImage" />
        <dc:title />
      </cc:Work>
    </rdf:RDF>
  </metadata>
  <g
     inkscape:label="Layer 1"
     inkscape:groupmode="layer"
     id="layer1"
     transform="translate(-0.42069879,-186.01322)">
    <path
       style="fill:#dddddd;stroke-width:0.26458332;fill-opacity:1"
       d="m 0.42069879,199.11354 c 0,1.81742 0.64161461,3.38481 1.92484371,4.70244 1.2832292,1.31736 2.8379208,2.0066 4.6638104,2.06719 0.1637771,0 0.2455333,-0.0775 0.2455333,-0.23257 v -1.83462 c 0,-0.16378 -0.082021,-0.24606 -0.2455333,-0.24606 -1.1631083,-0.0606 -2.1616458,-0.52705 -2.9972,-1.40177 -0.8355541,-0.87418 -1.2530666,-1.89256 -1.2530666,-3.0554 0,-1.15412 0.3899958,-2.1598 1.1691937,-3.01652 0.7794625,-0.85698 1.7420166,-1.33297 2.8873979,-1.42769 l 0.7233708,-0.10345 c 0.1722437,0 0.2584979,-0.082 0.2584979,-0.24554 l 0.1037167,-0.68474 c 0.1378479,-1.50733 0.7643812,-2.76913 1.8796,-3.78539 1.1152187,-1.01627 2.4309917,-1.52453 3.9467897,-1.52453 1.489869,0 2.794794,0.50377 3.91451,1.51156 1.119717,1.0078 1.761331,2.25214 1.924844,3.73354 l 0.09049,0.80089 c 0,0.16378 0.08626,0.24554 0.258763,0.24554 h 2.209535 c 1.240367,0 2.303992,0.44344 3.191404,1.33059 0.887413,0.88714 1.33059,1.9423 1.330325,3.16521 0,1.16284 -0.415395,2.18069 -1.246716,3.0554 -0.831321,0.87472 -1.832504,1.34118 -3.004079,1.40177 -0.18124,0 -0.270934,0.0823 -0.270934,0.24606 v 1.83462 c 0,0.15505 0.09022,0.23257 0.270934,0.23257 1.83462,-0.0606 3.386931,-0.74718 4.657725,-2.06058 1.270529,-1.31339 1.905793,-2.8829 1.905264,-4.70905 0,-1.23137 -0.305329,-2.37067 -0.91731,-3.41709 -0.611717,-1.0467 -1.442509,-1.87352 -2.493434,-2.48047 -1.050925,-0.60722 -2.191808,-0.9107 -3.423179,-0.9107 h -0.426243 c -0.456671,-1.84309 -1.425575,-3.35253 -2.906184,-4.52808 -1.481931,-1.17554 -3.169443,-1.76345 -5.064918,-1.76345 -1.937544,0 -3.660246,0.60299 -5.1673129,1.8087 -1.5073312,1.20597 -2.4722666,2.7432 -2.8940125,4.61221 -1.5501937,0.39635 -2.8119916,1.20783 -3.7853937,2.43523 -0.97419578,1.2274 -1.46102911,2.6416 -1.46102911,4.24418 z"
       id="path1967" />
    <path
       id="path1951"
       style="fill:#ffffff;stroke-width:0.26458332;fill-opacity:1"
       d="m 18.120001,204.84971 c 0,0.31009 0.115887,0.57282 0.348456,0.78819 0.206639,0.22463 0.469371,0.33629 0.788194,0.33629 0.327289,0 0.598752,-0.10743 0.813858,-0.32306 0.215106,-0.21511 0.323056,-0.48234 0.323056,-0.80037 0,-0.32755 -0.107421,-0.59901 -0.323056,-0.81385 -0.215106,-0.21537 -0.486569,-0.32359 -0.813858,-0.32359 -0.327025,0 -0.598488,0.10769 -0.813594,0.32359 -0.215106,0.2151 -0.323321,0.4863 -0.323321,0.81385 v -0.001 z m -5.684573,4.2373 c 0,0.30136 0.116152,0.56806 0.348721,0.80089 0.224102,0.22384 0.486833,0.33602 0.788193,0.33602 0.32729,0 0.598752,-0.10768 0.813859,-0.32305 0.215371,-0.21537 0.323056,-0.48684 0.323056,-0.81386 0,-0.31882 -0.107421,-0.58605 -0.323056,-0.8009 -0.215107,-0.2151 -0.486569,-0.32305 -0.813859,-0.32305 -0.327025,-5.3e-4 -0.598487,0.10742 -0.813858,0.32305 -0.215371,0.21564 -0.323056,0.4826 -0.323056,0.8009 z m -3.5139314,-4.28916 c 0,0.2921 0.1161521,0.55562 0.3487208,0.78819 0.2153709,0.23257 0.4738688,0.34872 0.7752296,0.34872 0.327289,0 0.60272,-0.11006 0.826822,-0.3294 0.224367,-0.21961 0.336286,-0.48922 0.336286,-0.80751 0,-0.31883 -0.111919,-0.58844 -0.336286,-0.80778 -0.224102,-0.2196 -0.499533,-0.32914 -0.826822,-0.32914 -0.3188233,0 -0.5855233,0.10716 -0.8006296,0.32306 -0.2156354,0.21563 -0.3230562,0.48657 -0.3233208,0.81386 z" />
    <path
       id="path482"
       style="fill:#00aff0;stroke-width:0.26458332;fill-opacity:1"
       d="m 18.959524,201.65857 c 0,0.23257 0.07514,0.45429 0.225954,0.66542 0.150812,0.21114 0.377031,0.35984 0.678127,0.44583 0.02593,0 0.08202,0.009 0.168275,0.0264 0.08599,0.0169 0.150548,0.0265 0.19341,0.0265 0.137848,0 0.301625,-0.0434 0.490538,-0.12911 0.292629,-0.15505 0.482071,-0.39635 0.568325,-0.72337 l 0.336021,-1.24037 c 0.08599,-0.31009 0.05159,-0.60087 -0.103453,-0.87233 -0.155045,-0.27173 -0.387614,-0.45456 -0.697706,-0.54875 -0.318823,-0.0947 -0.611981,-0.0693 -0.878416,0.0775 -0.266965,0.14632 -0.44794,0.37889 -0.542661,0.69771 l -0.387614,1.25307 c 0,0.0341 -0.0087,0.0878 -0.02646,0.16086 -0.01693,0.0733 -0.02619,0.12674 -0.02619,0.1614 z m -1.860286,7.26069 c 0,0.22437 0.07144,0.44397 0.213254,0.65881 0.142346,0.21511 0.3556,0.36592 0.639763,0.45218 0.04286,0 0.105039,0.009 0.18706,0.0259 0.08229,0.0175 0.144727,0.0265 0.187325,0.0265 0.559859,0 0.909109,-0.30189 1.046427,-0.90435 l 0.193675,-0.82682 c 0.09446,-0.29237 0.06456,-0.58129 -0.09049,-0.86546 -0.155046,-0.28416 -0.387615,-0.47386 -0.698236,-0.56806 -0.344487,-0.0862 -0.656166,-0.0497 -0.936625,0.10928 -0.279929,0.15981 -0.467254,0.40296 -0.561445,0.73051 l -0.129117,0.81386 c 0,0.0344 -0.0087,0.0905 -0.02646,0.16801 -0.0172,0.0775 -0.02593,0.13785 -0.02593,0.18124 z m -3.798094,-2.95857 c -0.0172,0.20664 0.04313,0.42228 0.180975,0.64585 0.137848,0.22384 0.344488,0.36168 0.620184,0.41354 0.318823,0.0863 0.611981,0.0606 0.878152,-0.0775 0.267229,-0.13785 0.456671,-0.39608 0.568325,-0.77523 l 0.374385,-1.24037 c 0.09472,-0.30215 0.06244,-0.59002 -0.09631,-0.86545 -0.159808,-0.27543 -0.402431,-0.4609 -0.730515,-0.55562 -0.30136,-0.095 -0.593989,-0.0587 -0.878152,0.10953 -0.284162,0.16802 -0.473604,0.41143 -0.568325,0.73025 l -0.310091,1.24037 c -0.02567,0.11218 -0.03837,0.2368 -0.03863,0.37465 z m -1.938072,7.13132 c 0,0.24077 0.07117,0.4691 0.213254,0.68474 0.142081,0.21563 0.363802,0.36618 0.665691,0.45217 0.111919,0.0259 0.227807,0.0386 0.348457,0.0386 0.585523,0 0.947473,-0.28046 1.085585,-0.83979 l 0.19341,-0.81386 c 0.08599,-0.35348 0.04736,-0.66754 -0.115887,-0.94297 -0.163513,-0.27543 -0.404548,-0.44344 -0.723371,-0.50377 -0.292894,-0.0944 -0.581289,-0.0624 -0.865452,0.0968 -0.284162,0.15954 -0.473604,0.39396 -0.568325,0.70406 l -0.193675,0.81385 c -0.02567,0.12039 -0.03863,0.22384 -0.03863,0.3101 z M 9.7612841,201.65857 c -0.017198,0.21537 0.044979,0.42439 0.187325,0.62627 0.1418169,0.20267 0.3638019,0.35083 0.6654269,0.44608 0.284163,0.086 0.568061,0.0537 0.852752,-0.0966 0.284427,-0.15081 0.473869,-0.3855 0.568325,-0.70432 l 0.387615,-1.24037 c 0.103452,-0.33602 0.07329,-0.635 -0.09049,-0.89826 -0.163777,-0.26246 -0.413543,-0.44132 -0.7493,-0.53578 -0.301625,-0.0947 -0.592137,-0.0646 -0.872066,0.0905 -0.280194,0.15504 -0.467519,0.38338 -0.561975,0.68474 l -0.3362857,1.26603 c 0,0.0259 -0.00873,0.0796 -0.025929,0.16113 -0.017198,0.0823 -0.025665,0.14896 -0.0254,0.20056 z m -1.8862146,7.13131 c 0,0.23257 0.075406,0.46514 0.2259542,0.69771 0.1505479,0.23257 0.3683,0.39158 0.6524625,0.4781 0.3188229,0.0947 0.6117166,0.0775 0.8784166,-0.0516 0.2669646,-0.12859 0.4474102,-0.38709 0.5426602,-0.77523 l 0.193675,-0.83979 c 0.06906,-0.31009 0.02593,-0.60087 -0.129116,-0.87207 -0.155046,-0.2712 -0.3918483,-0.45429 -0.7109358,-0.54901 -0.3100917,-0.0944 -0.6048375,-0.0606 -0.8850313,0.10345 -0.2799291,0.16378 -0.4630208,0.40931 -0.5490104,0.73634 l -0.1934104,0.81386 c -0.017198,0.0516 -0.025929,0.13785 -0.025665,0.25823 z" />
  </g>
</svg>
