<?xml version="1.0" encoding="utf-8"?>
<!-- Generator: Adobe Illustrator 15.0.0, SVG Export Plug-In . SVG Version: 6.00 Build 0)  -->
<!DOCTYPE svg PUBLIC "-//W3C//DTD SVG 1.1//EN" "http://www.w3.org/Graphics/SVG/1.1/DTD/svg11.dtd">
<svg version="1.1" id="Layer_1" xmlns="http://www.w3.org/2000/svg" xmlns:xlink="http://www.w3.org/1999/xlink" x="0px" y="0px"
	 width="107.861px" height="106.789px" viewBox="0 10.692 107.861 106.789" enable-background="new 0 10.692 107.861 106.789"
	 xml:space="preserve">
<path d="M0,60.205c0,6.869,2.425,12.793,7.275,17.773c4.85,4.979,10.726,7.584,17.627,7.813c0.619,0,0.928-0.293,0.928-0.879v-6.934
	c0-0.619-0.31-0.929-0.928-0.929c-4.395-0.228-8.17-1.993-11.328-5.298c-3.158-3.304-4.736-7.153-4.736-11.548
	c0-4.362,1.473-8.163,4.419-11.401c2.946-3.239,6.584-5.038,10.913-5.396l2.734-0.391c0.651,0,0.977-0.31,0.977-0.928l0.391-2.588
	c0.521-5.697,2.889-10.466,7.104-14.307s9.188-5.762,14.917-5.762c5.631,0,10.563,1.904,14.795,5.713s6.657,8.512,7.275,14.111
	l0.342,3.027c0,0.619,0.326,0.928,0.977,0.928h8.351c4.687,0,8.708,1.676,12.061,5.029c3.354,3.353,5.03,7.341,5.029,11.963
	c0,4.395-1.571,8.243-4.712,11.548c-3.142,3.305-6.926,5.07-11.354,5.298c-0.684,0-1.024,0.31-1.024,0.929v6.934
	c0,0.586,0.341,0.879,1.024,0.879c6.934-0.229,12.801-2.824,17.604-7.788c4.802-4.964,7.203-10.896,7.201-17.798
	c0-4.654-1.154-8.96-3.467-12.915c-2.311-3.956-5.452-7.081-9.424-9.375c-3.971-2.295-8.284-3.442-12.938-3.442h-1.611
	c-1.726-6.966-5.388-12.671-10.985-17.114c-5.6-4.443-11.979-6.665-19.142-6.665c-7.324,0-13.834,2.279-19.531,6.836
	c-5.697,4.558-9.343,10.368-10.938,17.432c-5.859,1.498-10.628,4.565-14.307,9.204S0,54.149,0,60.205L0,60.205z M28.174,96.777
	c0,0.879,0.285,1.758,0.854,2.637s1.392,1.481,2.466,1.807c1.205,0.358,2.311,0.293,3.32-0.195c1.009-0.487,1.692-1.464,2.051-2.93
	l0.732-3.174c0.261-1.172,0.098-2.271-0.488-3.296s-1.481-1.717-2.686-2.075c-1.172-0.357-2.287-0.228-3.345,0.391
	c-1.058,0.619-1.75,1.547-2.075,2.783l-0.732,3.076C28.206,95.996,28.173,96.322,28.174,96.777L28.174,96.777z M32.129,81.689
	c0,1.105,0.439,2.1,1.318,2.979c0.814,0.879,1.791,1.318,2.93,1.318c1.237,0,2.278-0.416,3.125-1.245
	c0.847-0.83,1.27-1.848,1.27-3.052c0-1.205-0.423-2.223-1.27-3.053s-1.888-1.244-3.125-1.244c-1.205,0-2.213,0.406-3.027,1.221
	S32.13,80.452,32.129,81.689z M35.303,69.824c-0.065,0.814,0.17,1.604,0.708,2.367c0.537,0.766,1.375,1.327,2.515,1.686
	c1.074,0.325,2.148,0.203,3.223-0.365c1.075-0.57,1.791-1.457,2.148-2.662l1.465-4.688c0.391-1.27,0.277-2.4-0.342-3.395
	c-0.619-0.992-1.563-1.668-2.832-2.025c-1.139-0.358-2.238-0.244-3.296,0.342s-1.766,1.449-2.124,2.588l-1.27,4.785
	c0,0.098-0.033,0.301-0.098,0.609C35.334,69.377,35.302,69.629,35.303,69.824L35.303,69.824z M41.357,113.037
	c0,0.911,0.269,1.773,0.806,2.588c0.537,0.814,1.375,1.384,2.515,1.709c0.423,0.098,0.862,0.146,1.318,0.146
	c2.213,0,3.581-1.059,4.102-3.174l0.732-3.076c0.325-1.335,0.179-2.523-0.439-3.564c-0.618-1.041-1.529-1.676-2.734-1.904
	c-1.107-0.357-2.197-0.236-3.271,0.366c-1.074,0.603-1.79,1.489-2.148,2.661l-0.732,3.076c-0.097,0.455-0.146,0.846-0.146,1.172
	H41.357z M45.41,97.9c0,1.139,0.439,2.148,1.318,3.027c0.847,0.846,1.84,1.27,2.979,1.27c1.237,0,2.262-0.407,3.076-1.221
	c0.814-0.814,1.221-1.84,1.221-3.076c0-1.205-0.407-2.214-1.221-3.027s-1.839-1.221-3.076-1.221
	c-1.237-0.001-2.262,0.406-3.076,1.221S45.41,96.697,45.41,97.9z M48.682,86.084c-0.065,0.781,0.163,1.596,0.684,2.441
	c0.521,0.846,1.302,1.367,2.344,1.563c1.205,0.326,2.312,0.229,3.319-0.293c1.01-0.521,1.726-1.497,2.148-2.93l1.416-4.688
	c0.358-1.141,0.236-2.23-0.365-3.271c-0.603-1.041-1.521-1.742-2.76-2.1c-1.139-0.359-2.246-0.221-3.32,0.414
	c-1.074,0.635-1.79,1.555-2.148,2.76l-1.172,4.688C48.731,85.092,48.683,85.563,48.682,86.084L48.682,86.084z M63.037,97.266
	c0,0.848,0.269,1.678,0.806,2.49c0.538,0.813,1.343,1.383,2.417,1.709c0.163,0,0.398,0.033,0.708,0.098
	c0.31,0.066,0.546,0.099,0.708,0.099c2.116,0,3.435-1.14,3.955-3.418l0.732-3.125c0.357-1.106,0.244-2.197-0.342-3.271
	c-0.586-1.074-1.465-1.791-2.638-2.148c-1.302-0.326-2.481-0.188-3.54,0.414c-1.058,0.603-1.766,1.522-2.123,2.76l-0.488,3.076
	c0,0.13-0.033,0.342-0.099,0.635s-0.098,0.521-0.098,0.684L63.037,97.266z M66.895,81.885c0,1.172,0.439,2.165,1.318,2.979
	c0.781,0.848,1.774,1.271,2.979,1.271c1.237,0,2.263-0.407,3.076-1.221c0.814-0.813,1.221-1.823,1.221-3.026
	c0-1.237-0.406-2.263-1.221-3.076c-0.813-0.814-1.839-1.222-3.076-1.222c-1.236,0-2.262,0.407-3.075,1.222
	c-0.813,0.813-1.222,1.839-1.222,3.076V81.885z M70.068,69.824c0,0.879,0.284,1.717,0.854,2.515s1.424,1.36,2.563,1.685
	c0.098,0,0.31,0.033,0.636,0.099c0.325,0.065,0.569,0.099,0.731,0.099c0.521,0,1.14-0.164,1.855-0.488
	c1.106-0.586,1.822-1.498,2.148-2.734l1.27-4.688c0.325-1.172,0.195-2.271-0.391-3.297s-1.465-1.717-2.637-2.074
	c-1.205-0.358-2.313-0.261-3.32,0.293c-1.009,0.553-1.693,1.432-2.051,2.637l-1.465,4.736c0,0.129-0.033,0.333-0.099,0.609
	c-0.065,0.277-0.099,0.48-0.099,0.61L70.068,69.824z"/>
</svg>
