<?xml version="1.0" encoding="UTF-8" standalone="no"?>
<!-- Created with Inkscape (http://www.inkscape.org/) -->

<svg
   xmlns:dc="http://purl.org/dc/elements/1.1/"
   xmlns:cc="http://creativecommons.org/ns#"
   xmlns:rdf="http://www.w3.org/1999/02/22-rdf-syntax-ns#"
   xmlns:svg="http://www.w3.org/2000/svg"
   xmlns="http://www.w3.org/2000/svg"
   xmlns:sodipodi="http://sodipodi.sourceforge.net/DTD/sodipodi-0.dtd"
   xmlns:inkscape="http://www.inkscape.org/namespaces/inkscape"
   width="28.564152mm"
   height="27.542332mm"
   viewBox="0 0 28.564154 27.542328"
   version="1.1"
   id="svg32"
   inkscape:version="0.92.1 r15371"
   sodipodi:docname="snow.svg">
  <defs
     id="defs26" />
  <sodipodi:namedview
     id="base"
     pagecolor="#ffffff"
     bordercolor="#666666"
     borderopacity="1.0"
     inkscape:pageopacity="0.0"
     inkscape:pageshadow="2"
     inkscape:zoom="7.9195959"
     inkscape:cx="42.441564"
     inkscape:cy="50.873923"
     inkscape:document-units="mm"
     inkscape:current-layer="layer1"
     showgrid="false"
     inkscape:window-width="1920"
     inkscape:window-height="1017"
     inkscape:window-x="-8"
     inkscape:window-y="-8"
     inkscape:window-maximized="1" />
  <metadata
     id="metadata29">
    <rdf:RDF>
      <cc:Work
         rdf:about="">
        <dc:format>image/svg+xml</dc:format>
        <dc:type
           rdf:resource="http://purl.org/dc/dcmitype/StillImage" />
        <dc:title />
      </cc:Work>
    </rdf:RDF>
  </metadata>
  <g
     inkscape:label="Layer 1"
     inkscape:groupmode="layer"
     id="layer1"
     transform="translate(28.224472,-193.6928)">
    <path
       style="fill:#dddddd;stroke-width:0.26458332;fill-opacity:1"
       d="m -28.224472,206.79232 c 0,-1.59305 0.488685,-3.00778 1.466321,-4.24365 0.977635,-1.23613 2.237316,-2.04364 3.778779,-2.42226 0.430477,-1.87801 1.397264,-3.41921 2.900362,-4.62491 1.503098,-1.20571 3.227652,-1.80843 5.174192,-1.8087 1.894946,0 3.585104,0.58817 5.0707395,1.76345 1.4859,1.17555 2.4526875,2.68499 2.9006271,4.52808 h 0.4389437 c 1.2313708,0 2.3727833,0.30321 3.4231791,0.9107 1.050925,0.60695 1.8819813,1.43377 2.49369792,2.48047 0.61171666,1.04616 0.9173104,2.18572 0.9173104,3.41682 0,1.82563 -0.63738124,3.39805 -1.91240832,4.71541 -1.2744979,1.31736 -2.8252208,2.0066 -4.6508458,2.06719 -0.180975,0 -0.2709333,-0.0775 -0.2709333,-0.23257 v -1.83489 c 0,-0.16377 0.090752,-0.24579 0.2709333,-0.24579 1.1718396,-0.0606 2.1727583,-0.52732 3.0040792,-1.40177 0.8315854,-0.87471 1.2469812,-1.89706 1.2469812,-3.0689 0,-1.2229 -0.4437062,-2.27753 -1.3305896,-3.16494 -0.8871479,-0.88715 -1.9507729,-1.33033 -3.1914041,-1.33033 h -2.2222354 c -0.1632479,0 -0.2455333,-0.0775 -0.2455333,-0.23257 l -0.1034521,-0.80089 c -0.1550458,-1.48987 -0.7945437,-2.73897 -1.9184935,-3.7465 -1.12395,-1.00753 -2.430992,-1.51157 -3.920861,-1.51157 -1.515797,0 -2.83157,0.50827 -3.946789,1.52453 -1.115219,1.01627 -1.74625,2.27807 -1.892565,3.78566 l -0.07752,0.68474 c 0,0.17198 -0.09049,0.2585 -0.271198,0.2585 l -0.723106,0.0907 c -1.145646,0.0947 -2.107935,0.57071 -2.887398,1.42769 -0.779462,0.85699 -1.169193,1.86267 -1.169193,3.01652 0,1.17131 0.415395,2.19419 1.246716,3.06837 0.831057,0.87445 1.832504,1.34144 3.003815,1.40203 0.155046,0 0.232569,0.0818 0.232569,0.24553 v 1.83489 c 0,0.15504 -0.07752,0.23257 -0.232569,0.23257 -1.843088,-0.0606 -3.404129,-0.7493 -4.683125,-2.06719 -1.278996,-1.31816 -1.918494,-2.89005 -1.918494,-4.71594 z"
       id="path3104" />
    <path
       id="path498"
       style="fill:#ffffff;stroke-width:0.26458332;fill-opacity:1"
       d="m -10.615393,217.39894 c 0,-0.30189 0.115887,-0.57758 0.348456,-0.82682 0.224102,-0.20664 0.5000627,-0.31036 0.8268231,-0.31036 0.3267604,0 0.5984875,0.10742 0.8135937,0.32332 0.2153709,0.21537 0.3233209,0.48684 0.3233209,0.81386 0,0.32676 -0.1071563,0.59849 -0.3233209,0.8136 -0.2151062,0.2151 -0.4868333,0.32332 -0.8135937,0.32332 -0.3267604,0 -0.6051021,-0.10981 -0.8326441,-0.32941 -0.229129,-0.2196 -0.342635,-0.48869 -0.342635,-0.80751 z m 0,-4.99957 c 0,-0.30136 0.115887,-0.56647 0.348456,-0.79427 0.232569,-0.22834 0.5080002,-0.34264 0.8268231,-0.34264 0.3188229,0 0.5879042,0.11218 0.8075083,0.33602 0.2196042,0.22463 0.3294063,0.49107 0.3294063,0.80089 0,0.32703 -0.1098021,0.60511 -0.3294063,0.83318 -0.2196041,0.2278 -0.4886854,0.34237 -0.8075083,0.34237 -0.3267604,0 -0.6051021,-0.11615 -0.8326441,-0.34872 -0.229129,-0.23257 -0.342635,-0.508 -0.342635,-0.82683 z m -4.444471,7.69964 c 0,-0.31035 0.116152,-0.59002 0.348721,-0.84005 0.224102,-0.22436 0.486569,-0.33628 0.788194,-0.33628 0.327025,0 0.606689,0.11588 0.839258,0.34819 0.233098,0.23283 0.348985,0.50853 0.348721,0.82682 0,0.31882 -0.116152,0.58843 -0.348721,0.80804 -0.23204,0.2196 -0.512233,0.32941 -0.839258,0.32941 -0.310092,0 -0.577057,-0.10981 -0.800894,-0.32941 -0.223838,-0.21961 -0.335756,-0.48922 -0.336021,-0.80804 z m 0,-10.02506 c 0,-0.31856 0.116152,-0.59425 0.348721,-0.82682 0.241035,-0.22384 0.503767,-0.33602 0.788194,-0.33602 0.327025,0 0.606689,0.1143 0.839258,0.34237 0.233098,0.22781 0.348985,0.50165 0.348721,0.82047 0,0.31882 -0.116152,0.58817 -0.348721,0.80777 -0.23204,0.21961 -0.512233,0.32915 -0.839258,0.32915 -0.310092,0 -0.577057,-0.10954 -0.800894,-0.32915 -0.223838,-0.21986 -0.335756,-0.48895 -0.336021,-0.80777 z m 0,4.9866 c 0,-0.31855 0.116152,-0.60272 0.348721,-0.85275 0.224102,-0.22436 0.486569,-0.33628 0.788194,-0.33628 0.318823,0 0.595841,0.11827 0.833173,0.35533 0.236802,0.23707 0.355335,0.51462 0.355335,0.83265 2.65e-4,0.31882 -0.115887,0.59213 -0.348456,0.821 -0.232569,0.22833 -0.512763,0.34263 -0.839523,0.34237 -0.310092,0 -0.577056,-0.11404 -0.800894,-0.34237 -0.223837,-0.22807 -0.335756,-0.50165 -0.336021,-0.821 z m -4.392612,2.33839 c 0,-0.32702 0.111918,-0.60272 0.336021,-0.82682 0.21537,-0.20664 0.482335,-0.31036 0.800893,-0.31036 0.318559,0 0.58764,0.10742 0.807509,0.32332 0.219868,0.21537 0.32967,0.48684 0.329406,0.81386 -2.65e-4,0.32676 -0.110067,0.59849 -0.329406,0.8136 -0.21934,0.2151 -0.488686,0.32332 -0.807509,0.32332 -0.319087,0 -0.588168,-0.10769 -0.807508,-0.32332 -0.21934,-0.21511 -0.329142,-0.48657 -0.329406,-0.8136 z m 0,-4.99957 c 0,-0.31009 0.109802,-0.57705 0.329406,-0.80089 0.219604,-0.22384 0.48895,-0.33576 0.807508,-0.33602 0.318823,0 0.587904,0.11192 0.807509,0.33602 0.219604,0.22463 0.329406,0.49133 0.329406,0.80089 0,0.32703 -0.109802,0.60511 -0.329406,0.83318 -0.219605,0.2278 -0.488686,0.34237 -0.807509,0.34237 -0.318823,0 -0.587904,-0.11457 -0.807508,-0.34237 -0.219604,-0.22807 -0.329406,-0.50615 -0.329406,-0.83318 z" />
  </g>
</svg>
