<?xml version="1.0" encoding="utf-8"?>
<!-- Generator: Adobe Illustrator 15.0.0, SVG Export Plug-In . SVG Version: 6.00 Build 0)  -->
<!DOCTYPE svg PUBLIC "-//W3C//DTD SVG 1.1//EN" "http://www.w3.org/Graphics/SVG/1.1/DTD/svg11.dtd">
<svg version="1.1" id="Layer_1" xmlns="http://www.w3.org/2000/svg" xmlns:xlink="http://www.w3.org/1999/xlink" x="0px" y="0px"
	 width="110.693px" height="110.693px" viewBox="0 -7.275 110.693 110.693" enable-background="new 0 -7.275 110.693 110.693"
	 xml:space="preserve">
<path d="M0,48.047c0-1.269,0.439-2.344,1.318-3.223c0.912-0.847,1.953-1.27,3.125-1.27h10.645c1.205,0,2.206,0.439,3.003,1.318
	c0.797,0.878,1.196,1.937,1.196,3.174s-0.399,2.287-1.196,3.149c-0.797,0.861-1.798,1.293-3.003,1.293H4.443
	c-1.205,0-2.246-0.438-3.125-1.317C0.439,50.292,0,49.25,0,48.047L0,48.047z M14.893,84.131c0-1.205,0.407-2.263,1.221-3.174
	l7.666-7.422c0.782-0.814,1.807-1.221,3.076-1.221c1.237,0,2.271,0.391,3.101,1.172s1.246,1.773,1.245,2.979
	c0,1.27-0.423,2.376-1.27,3.32l-7.422,7.422c-2.116,1.66-4.248,1.66-6.396,0C15.3,86.328,14.893,85.303,14.893,84.131z
	 M14.893,12.012c0-1.205,0.407-2.263,1.221-3.174c1.01-0.847,2.116-1.27,3.32-1.27c1.139,0,2.165,0.423,3.076,1.27l7.422,7.666
	c0.847,0.781,1.27,1.807,1.27,3.076c0,1.237-0.415,2.27-1.245,3.101c-0.83,0.831-1.864,1.246-3.101,1.245
	c-1.27,0-2.294-0.423-3.076-1.27l-7.666-7.422C15.3,14.355,14.893,13.281,14.893,12.012L14.893,12.012z M28.174,48.047
	c0-4.85,1.221-9.367,3.662-13.55c2.441-4.184,5.754-7.496,9.937-9.937c4.184-2.441,8.7-3.662,13.55-3.662
	c3.646,0,7.146,0.725,10.498,2.173c3.354,1.449,6.242,3.386,8.668,5.811s4.354,5.314,5.785,8.667
	c1.433,3.353,2.148,6.852,2.148,10.498c0,4.883-1.213,9.408-3.638,13.574s-5.722,7.463-9.888,9.888
	c-4.167,2.425-8.691,3.638-13.575,3.638c-4.882,0-9.407-1.213-13.574-3.638s-7.471-5.722-9.912-9.888S28.174,52.93,28.174,48.047z
	 M37.012,48.047c0,5.078,1.782,9.416,5.347,13.014c3.565,3.597,7.886,5.396,12.964,5.396s9.416-1.799,13.013-5.396
	c3.598-3.598,5.396-7.936,5.396-13.014c0-5.013-1.799-9.294-5.396-12.842s-7.936-5.322-13.013-5.322
	c-5.045,0-9.358,1.774-12.939,5.322C38.803,38.753,37.013,43.034,37.012,48.047L37.012,48.047z M50.879,88.525
	c0-1.236,0.432-2.279,1.294-3.125c0.863-0.848,1.913-1.271,3.149-1.271c1.27,0,2.328,0.423,3.174,1.271
	c0.847,0.846,1.27,1.889,1.27,3.125v10.352c0,1.27-0.432,2.344-1.293,3.223c-0.863,0.88-1.913,1.318-3.15,1.318
	c-1.236,0-2.286-0.439-3.149-1.318c-0.862-0.877-1.294-1.952-1.294-3.223L50.879,88.525L50.879,88.525z M50.879,7.813V-2.832
	c0-1.205,0.439-2.246,1.318-3.125c0.879-0.878,1.92-1.318,3.125-1.318c1.206,0,2.247,0.439,3.125,1.318
	c0.879,0.879,1.318,1.92,1.318,3.125V7.813c0,1.205-0.432,2.206-1.295,3.003c-0.862,0.797-1.912,1.196-3.149,1.196
	c-1.236,0-2.286-0.399-3.149-1.196C51.311,10.019,50.879,9.018,50.879,7.813L50.879,7.813z M79.639,76.465
	c0-1.205,0.391-2.182,1.172-2.93c0.781-0.814,1.758-1.221,2.931-1.221c1.269,0,2.312,0.406,3.125,1.221l7.616,7.422
	c0.848,0.911,1.271,1.969,1.271,3.174s-0.423,2.23-1.271,3.076c-2.082,1.627-4.166,1.627-6.25,0l-7.422-7.422
	C80.029,78.906,79.639,77.8,79.639,76.465z M79.639,19.58c0-1.302,0.391-2.328,1.172-3.076l7.422-7.666
	c0.912-0.847,1.938-1.27,3.076-1.27c1.236,0,2.287,0.439,3.149,1.318c0.862,0.878,1.294,1.92,1.294,3.125
	c0,1.302-0.424,2.376-1.27,3.223l-7.617,7.422c-0.944,0.847-1.986,1.27-3.125,1.27c-1.172,0-2.148-0.415-2.93-1.245
	S79.639,20.817,79.639,19.58L79.639,19.58z M91.406,48.047c0-1.236,0.423-2.311,1.27-3.223c0.847-0.847,1.84-1.27,2.979-1.27h10.548
	c1.204,0,2.255,0.447,3.149,1.343s1.342,1.945,1.342,3.149c0.002,1.204-0.446,2.246-1.342,3.125
	c-0.896,0.88-1.946,1.319-3.149,1.317H95.654c-1.204,0-2.213-0.431-3.026-1.293C91.814,50.333,91.408,49.283,91.406,48.047
	L91.406,48.047z"/>
</svg>
