<?xml version="1.0" encoding="utf-8"?>
<!-- Generator: Adobe Illustrator 15.0.0, SVG Export Plug-In . SVG Version: 6.00 Build 0)  -->
<!DOCTYPE svg PUBLIC "-//W3C//DTD SVG 1.1//EN" "http://www.w3.org/Graphics/SVG/1.1/DTD/svg11.dtd">
<svg version="1.1" id="Layer_1" xmlns="http://www.w3.org/2000/svg" xmlns:xlink="http://www.w3.org/1999/xlink" x="0px" y="0px"
	 width="108.105px" height="106.445px" viewBox="-0.002 10.596 108.105 106.445"
	 enable-background="new -0.002 10.596 108.105 106.445" xml:space="preserve">
<path d="M0,59.961c0,5.762,1.725,10.922,5.176,15.479c3.451,4.559,7.927,7.666,13.428,9.326l-3.418,8.74
	c-0.163,0.749,0.081,1.123,0.732,1.123h11.084l-5.127,22.412h1.465l20.41-29.932c0.195-0.229,0.22-0.465,0.073-0.709
	c-0.146-0.243-0.399-0.365-0.757-0.365H31.738l12.891-24.17c0.358-0.749,0.114-1.123-0.732-1.123H28.565
	c-0.488,0-0.895,0.26-1.221,0.781l-5.566,14.94c-3.71-0.944-6.787-2.962-9.229-6.055c-2.442-3.093-3.663-6.575-3.662-10.449
	c0-4.329,1.473-8.089,4.419-11.279c2.946-3.19,6.6-5.045,10.962-5.566l2.734-0.342c0.684,0,1.025-0.309,1.025-0.928l0.342-2.637
	c0.553-5.631,2.938-10.351,7.153-14.16c4.215-3.809,9.171-5.713,14.868-5.713c5.665,0,10.62,1.904,14.868,5.713
	c4.248,3.809,6.682,8.529,7.301,14.16l0.342,3.027c0,0.586,0.309,0.879,0.928,0.879h8.35c4.721,0,8.756,1.652,12.109,4.956
	c3.353,3.304,5.029,7.268,5.029,11.89c0,4.427-1.547,8.261-4.639,11.499c-3.094,3.238-6.918,5.037-11.476,5.396
	c-0.684,0-1.024,0.309-1.024,0.928v7.129c0,0.586,0.341,0.879,1.024,0.879c6.933-0.229,12.817-2.848,17.651-7.861
	c4.834-5.012,7.25-11.002,7.25-17.969c0-4.688-1.155-9.009-3.467-12.964c-2.311-3.956-5.461-7.081-9.447-9.375
	c-3.988-2.295-8.326-3.442-13.014-3.442h-1.611c-1.725-6.934-5.395-12.598-11.01-16.992c-5.616-4.395-12.004-6.592-19.166-6.592
	c-7.357,0-13.883,2.278-19.58,6.836c-5.697,4.557-9.343,10.384-10.938,17.48c-5.762,1.334-10.515,4.337-14.258,9.009
	c-3.743,4.671-5.615,10.019-5.615,16.04H0z M42.432,110.547c0,2.051,1.009,3.385,3.027,4.004c0.065,0,0.261,0.024,0.586,0.073
	s0.569,0.073,0.732,0.073c0.879,0,1.733-0.252,2.563-0.758c0.83-0.504,1.392-1.342,1.685-2.515l11.719-45.264
	c0.325-1.237,0.211-2.36-0.342-3.369c-0.554-1.009-1.416-1.692-2.588-2.051c-0.879-0.098-1.335-0.146-1.367-0.146
	c-0.848,0-1.669,0.26-2.467,0.78c-0.797,0.521-1.342,1.302-1.635,2.345L42.577,109.13C42.479,109.586,42.431,110.059,42.432,110.547
	L42.432,110.547z M64.063,94.58c0,0.684,0.18,1.334,0.537,1.953c0.717,1.139,1.596,1.904,2.637,2.295
	c0.555,0.162,1.075,0.244,1.563,0.244c0.489,0,1.042-0.131,1.66-0.391c1.074-0.457,1.806-1.449,2.197-2.979l7.521-29.541
	c0.162-0.749,0.243-1.221,0.243-1.416c0-0.781-0.276-1.563-0.83-2.345s-1.351-1.334-2.393-1.659
	c-0.879-0.098-1.335-0.146-1.367-0.146c-0.879,0-1.692,0.252-2.44,0.756c-0.75,0.506-1.271,1.295-1.563,2.369L64.21,93.408
	c0,0.098-0.024,0.285-0.073,0.563s-0.072,0.48-0.072,0.609H64.063z"/>
</svg>
