<?xml version="1.0" encoding="UTF-8" standalone="no"?>
<!-- Created with Inkscape (http://www.inkscape.org/) -->

<svg
   xmlns:dc="http://purl.org/dc/elements/1.1/"
   xmlns:cc="http://creativecommons.org/ns#"
   xmlns:rdf="http://www.w3.org/1999/02/22-rdf-syntax-ns#"
   xmlns:svg="http://www.w3.org/2000/svg"
   xmlns="http://www.w3.org/2000/svg"
   xmlns:sodipodi="http://sodipodi.sourceforge.net/DTD/sodipodi-0.dtd"
   xmlns:inkscape="http://www.inkscape.org/namespaces/inkscape"
   width="28.603046mm"
   height="28.163837mm"
   viewBox="0 0 28.603049 28.163833"
   version="1.1"
   id="svg32"
   inkscape:version="0.92.1 r15371"
   sodipodi:docname="tstorm.svg">
  <defs
     id="defs26" />
  <sodipodi:namedview
     id="base"
     pagecolor="#ffffff"
     bordercolor="#666666"
     borderopacity="1.0"
     inkscape:pageopacity="0.0"
     inkscape:pageshadow="2"
     inkscape:zoom="11.2"
     inkscape:cx="31.014672"
     inkscape:cy="41.654887"
     inkscape:document-units="mm"
     inkscape:current-layer="layer1"
     showgrid="false"
     inkscape:window-width="1920"
     inkscape:window-height="1017"
     inkscape:window-x="-8"
     inkscape:window-y="-8"
     inkscape:window-maximized="1" />
  <metadata
     id="metadata29">
    <rdf:RDF>
      <cc:Work
         rdf:about="">
        <dc:format>image/svg+xml</dc:format>
        <dc:type
           rdf:resource="http://purl.org/dc/dcmitype/StillImage" />
        <dc:title />
      </cc:Work>
    </rdf:RDF>
  </metadata>
  <g
     inkscape:label="Layer 1"
     inkscape:groupmode="layer"
     id="layer1"
     transform="translate(1.9853653,-168.12423)">
    <path
       style="fill:#e3c800;stroke-width:0.26458332;fill-opacity:1"
       d="M 2.9382659,187.7489 2.03392,190.06109 c -0.043127,0.19818 0.021431,0.29713 0.1934104,0.29713 h 2.9326417 l -1.3565188,5.92984 h 0.3876146 l 5.4001458,-7.91951 c 0.051594,-0.0606 0.058473,-0.12303 0.019315,-0.18758 -0.038629,-0.0643 -0.1055688,-0.0966 -0.2002896,-0.0966 h -2.9972 l 3.4107437,-6.39498 c 0.094721,-0.19817 0.030162,-0.29712 -0.1934104,-0.29712 H 5.5735158 c -0.1291166,0 -0.2370666,0.0688 -0.3230562,0.20664 l -1.4726708,3.95261"
       id="path2534" />
    <path
       style="fill:#dddddd;stroke-width:0.26458332;fill-opacity:1"
       d="m 3.7777888,185.55152 c -0.9816042,-0.24951 -1.7957271,-0.7837 -2.4418396,-1.60206 -0.6458479,-0.81835 -0.96890415,-1.73963 -0.96863956,-2.76463 0,-1.14538 0.38973124,-2.14021 1.16919376,-2.98397 0.7791979,-0.84402 1.74625,-1.33482 2.9003624,-1.47267 l 0.7231063,-0.0905 c 0.1812396,0 0.2711979,-0.082 0.2711979,-0.24553 l 0.090488,-0.69797 c 0.1463146,-1.48987 0.7773458,-2.7387 1.8925645,-3.7465 1.1152188,-1.0078 2.4264938,-1.51157 3.9338245,-1.51157 1.498865,0 2.80961,0.50377 3.93356,1.51157 1.12395,1.00806 1.768211,2.25663 1.931988,3.7465 l 0.09049,0.80089 c 0,0.15505 0.08176,0.23257 0.245534,0.23257 h 2.209535 c 1.249098,0 2.316692,0.43709 3.203575,1.31128 0.887413,0.87418 1.33059,1.92299 1.33059,3.14589 0,1.17158 -0.409311,2.18599 -1.227402,3.04245 -0.818886,0.85672 -1.830388,1.3327 -3.036623,1.42769 -0.180975,0 -0.270669,0.0817 -0.270669,0.24553 v 1.88622 c 0,0.15504 0.09022,0.23256 0.270669,0.23256 1.83462,-0.0606 3.391164,-0.75353 4.67016,-2.07962 1.278996,-1.32609 1.918229,-2.91095 1.918229,-4.75456 0,-1.24037 -0.305594,-2.38363 -0.91731,-3.43006 -0.611717,-1.04669 -1.445154,-1.87352 -2.499519,-2.48047 -1.055158,-0.60722 -2.202921,-0.91043 -3.443552,-0.91043 H 19.33132 c -0.456671,-1.83489 -1.427692,-3.33349 -2.913063,-4.4958 -1.4859,-1.16311 -3.176323,-1.74413 -5.071004,-1.74413 -1.9465393,0 -3.6734747,0.60245 -5.1805414,1.80869 -1.5073312,1.2057 -2.4722666,2.74743 -2.8940124,4.62465 -1.5245292,0.35295 -2.78209373,1.1475 -3.77242914,2.38363 -0.99033536,1.23587 -1.48563536,2.65113 -1.48563536,4.24392 l 0.00106,8.2e-4 c 0,1.52479 0.4566708,2.88978 1.36948332,4.09549 0.91307707,1.20623 2.09761668,2.02829 3.55308958,2.4675"
       id="path2529" />
    <path
       id="path530"
       style="fill:#00aff0;stroke-width:0.26458332;fill-opacity:1"
       d="m 14.965695,190.34552 c 0,0.18124 0.04763,0.35296 0.142081,0.51673 0.189706,0.30136 0.422275,0.50377 0.697706,0.60722 0.146844,0.0429 0.284427,0.0646 0.413544,0.0646 0.129381,0 0.275696,-0.0347 0.439208,-0.10345 0.284163,-0.12092 0.478103,-0.38338 0.58129,-0.7882 l 1.989931,-7.81605 c 0.0426,-0.19818 0.06403,-0.32306 0.06403,-0.37465 0,-0.20664 -0.07276,-0.41355 -0.219604,-0.62045 -0.146579,-0.2069 -0.357452,-0.35295 -0.633148,-0.43894 -0.232568,-0.0259 -0.353218,-0.0386 -0.361685,-0.0386 -0.232569,0 -0.44741,0.0667 -0.645319,0.20002 -0.198437,0.13388 -0.336285,0.34264 -0.413544,0.6268 l -2.015595,7.85495 c 0,0.0259 -0.0061,0.0754 -0.01905,0.14896 -0.01323,0.0733 -0.01905,0.12674 -0.01905,0.16087 h -7.94e-4 z m -5.7232021,4.2246 c 0,0.54293 0.2669645,0.89588 0.8006291,1.0594 0.0172,0 0.06932,0.006 0.155046,0.0193 0.08599,0.013 0.150548,0.0193 0.193675,0.0193 0.232569,0 0.458258,-0.0667 0.678127,-0.20055 0.219604,-0.13335 0.368564,-0.35507 0.446087,-0.66569 l 3.100652,-11.97584 c 0.08599,-0.32729 0.05583,-0.62441 -0.09049,-0.89138 -0.146579,-0.26696 -0.37465,-0.44741 -0.684742,-0.54266 -0.232568,-0.0259 -0.353218,-0.0386 -0.361685,-0.0386 -0.224367,0 -0.44159,0.0688 -0.652727,0.20611 -0.210873,0.13785 -0.355071,0.34449 -0.432594,0.62072 l -3.1138811,12.01472 c -0.025665,0.12092 -0.038365,0.24607 -0.0381,0.37518 z" />
  </g>
</svg>
